<?xml version="1.0" encoding="UTF-8" standalone="no"?>
<svg
   width="512"
   height="512"
   viewBox="0 0 32 32"
   fill="none"
   version="1.1"
   id="svg2760"
   sodipodi:docname="ui-light-plain-monochrom-state-sync.svg"
   inkscape:version="1.1 (c68e22c387, 2021-05-23)"
   xmlns:inkscape="http://www.inkscape.org/namespaces/inkscape"
   xmlns:sodipodi="http://sodipodi.sourceforge.net/DTD/sodipodi-0.dtd"
   xmlns="http://www.w3.org/2000/svg"
   xmlns:svg="http://www.w3.org/2000/svg">
  <sodipodi:namedview
     id="namedview2762"
     pagecolor="#ffffff"
     bordercolor="#666666"
     borderopacity="1.0"
     inkscape:pageshadow="2"
     inkscape:pageopacity="0.0"
     inkscape:pagecheckerboard="0"
     showgrid="false"
     inkscape:zoom="0.890625"
     inkscape:cx="255.4386"
     inkscape:cy="256"
     inkscape:window-width="1366"
     inkscape:window-height="706"
     inkscape:window-x="-8"
     inkscape:window-y="-8"
     inkscape:window-maximized="1"
     inkscape:current-layer="svg2760" />
  <defs
     id="defs2758">
    <clipPath
       id="clip0">
      <rect
         width="32"
         height="32"
         fill="white"
         id="rect2755" />
    </clipPath>
    <clipPath
       clipPathUnits="userSpaceOnUse"
       id="clipPath4347">
      <circle
         style="display:none;fill:#ff0000;fill-opacity:1;stroke-width:0.193737"
         id="circle4349"
         cx="17.999962"
         cy="23.499962"
         r="10.455049"
         d="M 28.45501,23.499962 A 10.455049,10.455049 0 0 1 17.999962,33.95501 10.455049,10.455049 0 0 1 7.5449133,23.499962 10.455049,10.455049 0 0 1 17.999962,13.044913 10.455049,10.455049 0 0 1 28.45501,23.499962 Z" />
      <path
         id="lpe_path-effect4351"
         style="fill:#ff0000;fill-opacity:1;stroke-width:0.193737"
         class="powerclip"
         d="M -5,-5 H 36.999606 V 26.33307 H -5 Z M 28.45501,23.499962 A 10.455049,10.455049 0 0 0 17.999962,13.044913 10.455049,10.455049 0 0 0 7.5449133,23.499962 10.455049,10.455049 0 0 0 17.999962,33.95501 10.455049,10.455049 0 0 0 28.45501,23.499962 Z" />
    </clipPath>
    <inkscape:path-effect
       effect="powerclip"
       id="path-effect4351"
       is_visible="true"
       lpeversion="1"
       inverse="true"
       flatten="false"
       hide_clip="false"
       message="Utilice la regla de relleno parimpar en el diálogo &lt;b&gt;Relleno y borde&lt;/b&gt; si el resultado no está aplanada después de convertir el recorte en trayectos." />
  </defs>
  <g
     id="g2953">
    <path
       fill-rule="evenodd"
       clip-rule="evenodd"
       d="m 18,15 c 4.6939,0 8.5,3.8051 8.5,8.4995 0,4.6939 -3.8061,8.499 -8.5,8.499 -4.6939,0 -8.5,-3.8051 -8.5,-8.499 C 9.5,18.8051 13.3061,15 18,15 Z m -2.28,8.772 -0.9752,0.1616 -1.8128,0.3184 0.252,2.818 0.5787,-0.7524 0.1183,0.1608 0.1527,0.1976 c 0.9934,1.2247 2.478,1.9387 4.0595,1.9387 0.3024,0 0.6079,-0.027 0.909,-0.08 1.0639,-0.1873 2.0293,-0.6912 2.7927,-1.4572 0.6829,-0.6862 1.1581,-1.5341 1.3839,-2.4651 L 23.245,24.3 l -1.83,0.322 -0.008,0.0221 -0.0844,0.2013 c -0.4517,0.9901 -1.3439,1.7272 -2.3997,1.9826 l -0.2133,0.0446 -0.2045,0.0301 c -0.1371,0.016 -0.2754,0.0241 -0.4125,0.0241 -1.2717,0 -2.4461,-0.6906 -3.0731,-1.7883 l -0.0994,-0.1867 0.0155,-0.1579 z m 2.3765,-5.622 c -0.3018,0 -0.6079,0.0271 -0.9116,0.0805 -2.0627,0.3632 -3.7203,1.9489 -4.1903,3.9799 l -0.0576,0.2816 1.825,-0.322 0.0077,-0.02 0.0788,-0.1932 c 0.4488,-1.0143 1.3522,-1.7676 2.4265,-2.0233 l 0.2034,-0.042 0.2052,-0.0303 c 0.1372,-0.0162 0.2751,-0.0244 0.4119,-0.0244 1.2792,0 2.457,0.6959 3.0814,1.8022 l 0.0988,0.1882 -0.0159,0.1572 -0.7888,1.0256 2.803,-0.491 -0.268,-2.806 -0.5728,0.7442 -0.118,-0.1613 -0.1524,-0.1985 C 21.1708,18.8673 19.6836,18.15 18.0965,18.15 Z"
       fill="#041e42"
       id="path2751" />
    <path
       d="M 25.799682,8.053234 C 24.893027,3.453291 20.853076,0 15.999803,0 12.146517,0 8.799891,2.18664 7.133245,5.3866 3.119961,5.813262 0,9.21322 0,13.333169 0,17.746448 3.586622,21.33307 7.999901,21.33307 h 17.33312 c 3.679955,0 6.666585,-2.986629 6.666585,-6.666584 0,-3.519957 -2.7333,-6.373255 -6.199924,-6.613252 z"
       id="path121"
       style="fill:#041e42;fill-opacity:1;stroke-width:1.33332"
       clip-path="url(#clipPath4347)"
       inkscape:path-effect="#path-effect4351"
       inkscape:original-d="M 25.799682,8.053234 C 24.893027,3.453291 20.853076,0 15.999803,0 12.146517,0 8.799891,2.18664 7.133245,5.3866 3.119961,5.813262 0,9.21322 0,13.333169 0,17.746448 3.586622,21.33307 7.999901,21.33307 h 17.33312 c 3.679955,0 6.666585,-2.986629 6.666585,-6.666584 0,-3.519957 -2.7333,-6.373255 -6.199924,-6.613252 z"
       transform="translate(1.97e-4)" />
  </g>
</svg>
