<?xml version="1.0" encoding="UTF-8" standalone="no"?>
<svg
   width="512"
   height="512"
   viewBox="0 0 32 32"
   fill="none"
   version="1.1"
   id="svg18066"
   sodipodi:docname="ui-dark-plain-color-state-info.svg"
   inkscape:version="1.1 (c68e22c387, 2021-05-23)"
   xmlns:inkscape="http://www.inkscape.org/namespaces/inkscape"
   xmlns:sodipodi="http://sodipodi.sourceforge.net/DTD/sodipodi-0.dtd"
   xmlns="http://www.w3.org/2000/svg"
   xmlns:svg="http://www.w3.org/2000/svg">
  <sodipodi:namedview
     id="namedview18068"
     pagecolor="#ffffff"
     bordercolor="#666666"
     borderopacity="1.0"
     inkscape:pageshadow="2"
     inkscape:pageopacity="0.0"
     inkscape:pagecheckerboard="0"
     showgrid="false"
     inkscape:zoom="0.890625"
     inkscape:cx="255.4386"
     inkscape:cy="256"
     inkscape:window-width="1366"
     inkscape:window-height="706"
     inkscape:window-x="-8"
     inkscape:window-y="-8"
     inkscape:window-maximized="1"
     inkscape:current-layer="svg18066" />
  <defs
     id="defs18064">
    <clipPath
       id="clip0">
      <rect
         width="32"
         height="32"
         fill="white"
         id="rect18061" />
    </clipPath>
    <clipPath
       clipPathUnits="userSpaceOnUse"
       id="clipPath4347">
      <circle
         style="display:none;fill:#ff0000;fill-opacity:1;stroke-width:0.193737"
         id="circle4349"
         cx="17.999962"
         cy="23.499962"
         r="10.455049"
         d="M 28.45501,23.499962 A 10.455049,10.455049 0 0 1 17.999962,33.95501 10.455049,10.455049 0 0 1 7.5449133,23.499962 10.455049,10.455049 0 0 1 17.999962,13.044913 10.455049,10.455049 0 0 1 28.45501,23.499962 Z" />
      <path
         id="lpe_path-effect4351"
         style="fill:#ff0000;fill-opacity:1;stroke-width:0.193737"
         class="powerclip"
         d="M -5,-5 H 36.999606 V 26.33307 H -5 Z M 28.45501,23.499962 A 10.455049,10.455049 0 0 0 17.999962,13.044913 10.455049,10.455049 0 0 0 7.5449133,23.499962 10.455049,10.455049 0 0 0 17.999962,33.95501 10.455049,10.455049 0 0 0 28.45501,23.499962 Z" />
    </clipPath>
    <inkscape:path-effect
       effect="powerclip"
       id="path-effect4351"
       is_visible="true"
       lpeversion="1"
       inverse="true"
       flatten="false"
       hide_clip="false"
       message="Utilice la regla de relleno parimpar en el diálogo &lt;b&gt;Relleno y borde&lt;/b&gt; si el resultado no está aplanada después de convertir el recorte en trayectos." />
  </defs>
  <g
     id="g18261">
    <path
       fill-rule="evenodd"
       clip-rule="evenodd"
       d="m 26.5,23.4995 c 0,4.6939 -3.8061,8.499 -8.5,8.499 -4.6939,0 -8.5,-3.8051 -8.5,-8.499 C 9.5,18.8051 13.3061,15 18,15 c 4.6939,0 8.5,3.8051 8.5,8.4995 z"
       fill="#2268ab"
       id="path18055" />
    <path
       fill-rule="evenodd"
       clip-rule="evenodd"
       d="m 18.7924,21.5304 -2.1595,1.3938 c -0.0744,0.5189 -0.1668,1.0351 -0.2592,1.5517 -0.0502,0.2802 -0.1004,0.5606 -0.1477,0.8415 -0.0496,0.2925 -0.0947,0.5856 -0.1397,0.8786 -0.0361,0.2344 -0.0721,0.4687 -0.1105,0.7028 -0.0587,0.3606 0.0614,0.7119 0.2684,0.9947 0.2402,0.3282 0.5956,0.5595 0.9048,0.6112 0.3206,0.0449 0.6407,0.0655 0.961,0.0616 0.7198,-9e-4 1.6779,-0.0315 0.499,-1.9617 0.0339,-0.2245 0.0794,-0.4637 0.1736,-0.9624 0.1668,-0.918 0.336,-1.8356 0.5375,-2.9016 0.0479,-0.226 0.1196,-0.4569 -0.5277,-1.2102 z m -0.546,-3.2122 c -0.4002,-0.0176 -0.7702,0.129 -1.0444,0.3801 -0.2742,0.2512 -0.4525,0.6069 -0.4701,1.0077 -0.0176,0.4008 0.129,0.7708 0.3801,1.045 0.2511,0.2742 0.6069,0.4526 1.0078,0.4702 0.4008,0.0175 0.7708,-0.1291 1.045,-0.3802 0.2734,-0.2506 0.4524,-0.605 0.471,-1.0369 0.0112,-0.3975 -0.1382,-0.7607 -0.3893,-1.0288 -0.2512,-0.2684 -0.6043,-0.4416 -1.0001,-0.4571 z"
       fill="#ffffff"
       stroke="#1455b1"
       stroke-width="0.25"
       id="path18057" />
    <path
       d="M 25.799682,8.053234 C 24.893027,3.453291 20.853076,0 15.999803,0 12.146517,0 8.799891,2.18664 7.133245,5.3866 3.119961,5.813262 0,9.21322 0,13.333169 0,17.746448 3.586622,21.33307 7.999901,21.33307 h 17.33312 c 3.679955,0 6.666585,-2.986629 6.666585,-6.666584 0,-3.519957 -2.7333,-6.373255 -6.199924,-6.613252 z"
       id="path121"
       style="fill:#ffffff;fill-opacity:1;stroke-width:1.33332"
       clip-path="url(#clipPath4347)"
       inkscape:path-effect="#path-effect4351"
       inkscape:original-d="M 25.799682,8.053234 C 24.893027,3.453291 20.853076,0 15.999803,0 12.146517,0 8.799891,2.18664 7.133245,5.3866 3.119961,5.813262 0,9.21322 0,13.333169 0,17.746448 3.586622,21.33307 7.999901,21.33307 h 17.33312 c 3.679955,0 6.666585,-2.986629 6.666585,-6.666584 0,-3.519957 -2.7333,-6.373255 -6.199924,-6.613252 z"
       transform="translate(1.97e-4)" />
  </g>
</svg>
