<?xml version="1.0" encoding="UTF-8" standalone="no"?>
<svg
   width="512"
   height="512"
   viewBox="0 0 32 32"
   fill="none"
   version="1.1"
   id="svg19047"
   sodipodi:docname="ui-dark-plain-color-state-sync.svg"
   inkscape:version="1.1 (c68e22c387, 2021-05-23)"
   xmlns:inkscape="http://www.inkscape.org/namespaces/inkscape"
   xmlns:sodipodi="http://sodipodi.sourceforge.net/DTD/sodipodi-0.dtd"
   xmlns="http://www.w3.org/2000/svg"
   xmlns:svg="http://www.w3.org/2000/svg">
  <sodipodi:namedview
     id="namedview19049"
     pagecolor="#ffffff"
     bordercolor="#666666"
     borderopacity="1.0"
     inkscape:pageshadow="2"
     inkscape:pageopacity="0.0"
     inkscape:pagecheckerboard="0"
     showgrid="false"
     inkscape:zoom="0.890625"
     inkscape:cx="255.4386"
     inkscape:cy="256"
     inkscape:window-width="1366"
     inkscape:window-height="706"
     inkscape:window-x="-8"
     inkscape:window-y="-8"
     inkscape:window-maximized="1"
     inkscape:current-layer="svg19047" />
  <defs
     id="defs19045">
    <clipPath
       id="clip0">
      <rect
         width="32"
         height="32"
         fill="white"
         id="rect19042" />
    </clipPath>
    <clipPath
       clipPathUnits="userSpaceOnUse"
       id="clipPath4347">
      <circle
         style="display:none;fill:#ff0000;fill-opacity:1;stroke-width:0.193737"
         id="circle4349"
         cx="17.999962"
         cy="23.499962"
         r="10.455049"
         d="M 28.45501,23.499962 A 10.455049,10.455049 0 0 1 17.999962,33.95501 10.455049,10.455049 0 0 1 7.5449133,23.499962 10.455049,10.455049 0 0 1 17.999962,13.044913 10.455049,10.455049 0 0 1 28.45501,23.499962 Z" />
      <path
         id="lpe_path-effect4351"
         style="fill:#ff0000;fill-opacity:1;stroke-width:0.193737"
         class="powerclip"
         d="M -5,-5 H 36.999606 V 26.33307 H -5 Z M 28.45501,23.499962 A 10.455049,10.455049 0 0 0 17.999962,13.044913 10.455049,10.455049 0 0 0 7.5449133,23.499962 10.455049,10.455049 0 0 0 17.999962,33.95501 10.455049,10.455049 0 0 0 28.45501,23.499962 Z" />
    </clipPath>
    <inkscape:path-effect
       effect="powerclip"
       id="path-effect4351"
       is_visible="true"
       lpeversion="1"
       inverse="true"
       flatten="false"
       hide_clip="false"
       message="Utilice la regla de relleno parimpar en el diálogo &lt;b&gt;Relleno y borde&lt;/b&gt; si el resultado no está aplanada después de convertir el recorte en trayectos." />
  </defs>
  <g
     id="g19242">
    <path
       fill-rule="evenodd"
       clip-rule="evenodd"
       d="m 26.5,23.4995 c 0,4.6939 -3.8061,8.499 -8.5,8.499 -4.6939,0 -8.5,-3.8051 -8.5,-8.499 C 9.5,18.8051 13.3061,15 18,15 c 4.6939,0 8.5,3.8051 8.5,8.4995 z"
       fill="#006ab0"
       id="path19036" />
    <path
       fill-rule="evenodd"
       clip-rule="evenodd"
       d="m 16.3627,23.3878 -1.6643,0.2747 -2.0618,0.3632 0.3361,3.773 0.787,-1.0254 c 1.0431,1.3328 2.633,2.1164 4.3335,2.1164 0.3189,0 0.6404,-0.0284 0.9567,-0.0842 1.1207,-0.1972 2.137,-0.7284 2.9399,-1.534 0.8173,-0.8212 1.3536,-1.8629 1.5992,-3.319 l -2.4155,0.5305 c -0.3959,1.1015 -1.3652,1.9162 -2.5118,2.1188 -0.1882,0.0333 -0.3804,0.05 -0.5691,0.05 -0.6191,0 -1.2126,-0.1776 -1.7201,-0.4935 -0.4876,-0.3035 -0.8957,-0.7349 -1.1708,-1.2594 z m 1.7338,-5.5128 c -0.3199,0 -0.642,0.0289 -0.9592,0.0846 -1.1392,0.2007 -2.1608,0.7549 -2.9528,1.5806 -0.8106,0.8449 -1.381,1.9743 -1.589,3.3005 l 2.4088,-0.5309 c 0.3916,-1.1176 1.3636,-1.9438 2.522,-2.1475 0.1878,-0.0333 0.3795,-0.0505 0.5692,-0.0505 0.6228,0 1.219,0.1789 1.7277,0.4973 0.4889,0.306 0.8971,0.7409 1.1708,1.2699 l -1.1715,1.524 3.7497,-0.6562 -0.3586,-3.7536 -0.7763,1.008 C 21.396,18.6627 19.8033,17.875 18.0965,17.875 Z"
       fill="#ffffff"
       stroke="#004a9f"
       stroke-width="0.25"
       id="path19038" />
    <path
       d="M 25.799682,8.053234 C 24.893027,3.453291 20.853076,0 15.999803,0 12.146517,0 8.799891,2.18664 7.133245,5.3866 3.119961,5.813262 0,9.21322 0,13.333169 0,17.746448 3.586622,21.33307 7.999901,21.33307 h 17.33312 c 3.679955,0 6.666585,-2.986629 6.666585,-6.666584 0,-3.519957 -2.7333,-6.373255 -6.199924,-6.613252 z"
       id="path121"
       style="fill:#ffffff;fill-opacity:1;stroke-width:1.33332"
       clip-path="url(#clipPath4347)"
       inkscape:path-effect="#path-effect4351"
       inkscape:original-d="M 25.799682,8.053234 C 24.893027,3.453291 20.853076,0 15.999803,0 12.146517,0 8.799891,2.18664 7.133245,5.3866 3.119961,5.813262 0,9.21322 0,13.333169 0,17.746448 3.586622,21.33307 7.999901,21.33307 h 17.33312 c 3.679955,0 6.666585,-2.986629 6.666585,-6.666584 0,-3.519957 -2.7333,-6.373255 -6.199924,-6.613252 z"
       transform="translate(1.97e-4)" />
  </g>
</svg>
