<?xml version="1.0" encoding="UTF-8" standalone="no"?>
<svg
   width="512"
   height="512"
   viewBox="0 0 32 32"
   fill="none"
   version="1.1"
   id="svg22253"
   sodipodi:docname="ui-dark-plain-monochrom-state-info.svg"
   inkscape:version="1.1 (c68e22c387, 2021-05-23)"
   xmlns:inkscape="http://www.inkscape.org/namespaces/inkscape"
   xmlns:sodipodi="http://sodipodi.sourceforge.net/DTD/sodipodi-0.dtd"
   xmlns="http://www.w3.org/2000/svg"
   xmlns:svg="http://www.w3.org/2000/svg">
  <sodipodi:namedview
     id="namedview22255"
     pagecolor="#ffffff"
     bordercolor="#666666"
     borderopacity="1.0"
     inkscape:pageshadow="2"
     inkscape:pageopacity="0.0"
     inkscape:pagecheckerboard="0"
     showgrid="false"
     inkscape:zoom="0.890625"
     inkscape:cx="255.4386"
     inkscape:cy="256"
     inkscape:window-width="1366"
     inkscape:window-height="706"
     inkscape:window-x="-8"
     inkscape:window-y="-8"
     inkscape:window-maximized="1"
     inkscape:current-layer="svg22253" />
  <defs
     id="defs22251">
    <clipPath
       id="clip0">
      <rect
         width="32"
         height="32"
         fill="white"
         id="rect22248" />
    </clipPath>
    <clipPath
       clipPathUnits="userSpaceOnUse"
       id="clipPath4347">
      <circle
         style="display:none;fill:#ff0000;fill-opacity:1;stroke-width:0.193737"
         id="circle4349"
         cx="17.999962"
         cy="23.499962"
         r="10.455049"
         d="M 28.45501,23.499962 A 10.455049,10.455049 0 0 1 17.999962,33.95501 10.455049,10.455049 0 0 1 7.5449133,23.499962 10.455049,10.455049 0 0 1 17.999962,13.044913 10.455049,10.455049 0 0 1 28.45501,23.499962 Z" />
      <path
         id="lpe_path-effect4351"
         style="fill:#ff0000;fill-opacity:1;stroke-width:0.193737"
         class="powerclip"
         d="M -5,-5 H 36.999606 V 26.33307 H -5 Z M 28.45501,23.499962 A 10.455049,10.455049 0 0 0 17.999962,13.044913 10.455049,10.455049 0 0 0 7.5449133,23.499962 10.455049,10.455049 0 0 0 17.999962,33.95501 10.455049,10.455049 0 0 0 28.45501,23.499962 Z" />
    </clipPath>
    <inkscape:path-effect
       effect="powerclip"
       id="path-effect4351"
       is_visible="true"
       lpeversion="1"
       inverse="true"
       flatten="false"
       hide_clip="false"
       message="Utilice la regla de relleno parimpar en el diálogo &lt;b&gt;Relleno y borde&lt;/b&gt; si el resultado no está aplanada después de convertir el recorte en trayectos." />
  </defs>
  <g
     id="g22577">
    <path
       fill-rule="evenodd"
       clip-rule="evenodd"
       d="m 18,15 c 4.6939,0 8.5,3.8051 8.5,8.4995 0,4.6939 -3.8061,8.499 -8.5,8.499 -4.6939,0 -8.5,-3.8051 -8.5,-8.499 C 9.5,18.8051 13.3061,15 18,15 Z m 0.7722,6.6947 -0.0043,3e-4 -2.6263,4e-4 c -0.0949,9e-4 -0.1893,0.0142 -0.2808,0.0395 -0.1116,0.0232 -0.1968,0.1139 -0.2135,0.2266 -0.0309,0.1226 0.0308,0.2498 0.1462,0.3013 0.1406,0.0656 0.2915,0.1063 0.446,0.1199 0.4066,0.019 0.5704,0.1974 0.509,0.6157 -0.1141,0.7823 -0.2677,1.5588 -0.3993,2.3398 -0.0892,0.5264 -0.1638,1.0543 -0.25,1.5808 -0.1156,0.7094 0.5454,1.3746 1.0704,1.4624 0.3111,0.0435 0.6249,0.0637 0.9389,0.0599 0.6728,-9e-4 1.3157,-0.279 1.7767,-0.7692 0.0838,-0.0772 0.1467,-0.1742 0.1828,-0.2822 0.0177,-0.0944 -0.0045,-0.1918 -0.0614,-0.2691 -0.0686,-0.043 -0.1534,-0.0522 -0.2296,-0.0249 -0.1199,0.0395 -0.2266,0.1214 -0.3436,0.1727 -0.1368,0.0636 -0.2799,0.1128 -0.427,0.1463 -0.2236,0.0548 -0.4493,-0.0821 -0.5041,-0.3055 -0.0053,-0.0218 -0.0088,-0.0439 -0.0107,-0.066 -0.0246,-0.1361 -0.029,-0.275 -0.0132,-0.4125 0.0498,-0.3393 0.12,-0.6756 0.1814,-1.012 0.1667,-0.9173 0.3359,-1.8352 0.5074,-2.7536 0.0468,-0.2515 0.1258,-0.4987 0.0731,-0.7634 -0.0168,-0.2417 -0.2263,-0.4239 -0.4681,-0.4072 z m -0.5307,-3.2516 c -0.7326,-0.0322 -1.3527,0.5358 -1.3847,1.2683 -0.0322,0.7328 0.5357,1.3527 1.2685,1.3848 0.7326,0.0321 1.3525,-0.5358 1.3847,-1.2684 4e-4,-0.0097 7e-4,-0.0195 9e-4,-0.0291 0.0205,-0.7232 -0.5465,-1.3273 -1.2694,-1.3527 z"
       fill="#ffffff"
       id="path22244" />
    <path
       d="M 25.799682,8.053234 C 24.893027,3.453291 20.853076,0 15.999803,0 12.146517,0 8.799891,2.18664 7.133245,5.3866 3.119961,5.813262 0,9.21322 0,13.333169 0,17.746448 3.586622,21.33307 7.999901,21.33307 h 17.33312 c 3.679955,0 6.666585,-2.986629 6.666585,-6.666584 0,-3.519957 -2.7333,-6.373255 -6.199924,-6.613252 z"
       id="path121"
       style="fill:#ffffff;fill-opacity:1;stroke-width:1.33332"
       clip-path="url(#clipPath4347)"
       inkscape:path-effect="#path-effect4351"
       inkscape:original-d="M 25.799682,8.053234 C 24.893027,3.453291 20.853076,0 15.999803,0 12.146517,0 8.799891,2.18664 7.133245,5.3866 3.119961,5.813262 0,9.21322 0,13.333169 0,17.746448 3.586622,21.33307 7.999901,21.33307 h 17.33312 c 3.679955,0 6.666585,-2.986629 6.666585,-6.666584 0,-3.519957 -2.7333,-6.373255 -6.199924,-6.613252 z"
       transform="translate(1.97e-4)" />
  </g>
</svg>
