<?xml version="1.0" encoding="UTF-8" standalone="no"?>
<svg
   width="182"
   height="182"
   viewBox="0 0 182 182"
   fill="none"
   version="1.1"
   id="svg2088"
   sodipodi:docname="oc-image-about.svg"
   inkscape:version="1.1 (c68e22c387, 2021-05-23)"
   xmlns:inkscape="http://www.inkscape.org/namespaces/inkscape"
   xmlns:sodipodi="http://sodipodi.sourceforge.net/DTD/sodipodi-0.dtd"
   xmlns="http://www.w3.org/2000/svg"
   xmlns:svg="http://www.w3.org/2000/svg">
  <defs
     id="defs2092">
    <clipPath
       clipPathUnits="userSpaceOnUse"
       id="clipPath19328">
      <path
         id="path19330"
         style="display:none;fill:#000000;fill-opacity:1;fill-rule:nonzero;stroke:none;stroke-width:0.00712383"
         d="m 61.912011,105.22558 c -0.501815,0.0673 -0.92704,0.15305 -1.370693,0.31825 -0.116268,0.0428 -0.257024,0.10093 -0.351856,0.156 -0.312087,0.14689 -0.826132,0.41002 -1.012767,0.66084 -0.110143,0.0704 -0.492633,0.44368 -0.514051,0.52325 -0.09181,0.0489 -0.134617,0.14071 -0.201927,0.2356 -0.128506,0.16527 -0.284536,0.33663 -0.351854,0.54771 -0.358,0.4773 -0.566033,1.30952 -0.651714,1.92148 -0.01222,0 -0.04589,0.31516 -0.0612,0.33352 v 0.0734 0.64252 0.30292 c 0.13463,0.78941 0.318217,1.41967 0.774112,2.12034 0.15603,0.27841 0.507881,0.70375 0.816904,0.92097 0.663961,0.58134 1.523746,1.04638 2.429391,1.26669 0.01529,0.0153 0.156025,0.0367 0.171328,0.052 0.599684,0.10708 0.908722,0.14384 0.972971,0.16833 h 1.012767 c 0.07038,-0.0245 0.07038,-0.0245 0.737378,-0.14686 v -7e-5 c 0.982146,-0.26926 1.799055,-0.7312 2.524188,-1.45942 0.342654,-0.37939 0.342697,-0.37939 0.382519,-0.44059 0.376351,-0.46199 0.630293,-1.0005 0.838308,-1.53595 0.156081,-0.52012 0.15607,-0.52012 0.162129,-0.56298 0.0582,-0.28148 0.05822,-0.28147 0.134665,-0.84138 v -0.71597 c -0.01532,-0.11627 -0.02748,-0.23257 -0.03973,-0.34886 -0.06119,-0.44059 -0.146904,-0.83222 -0.241723,-1.22696 -0.0337,-0.0856 -0.06424,-0.16823 -0.09486,-0.25079 -0.250833,-0.53244 -0.541555,-0.8139 -1.08617,-0.52325 -0.312095,0.29065 -0.312116,0.43753 -0.189725,0.85364 0.09795,0.34268 0.192778,0.68537 0.293725,1.0311 0.07957,0.0765 0.137673,0.79556 0.143793,0.90877 -0.02143,0.44671 -0.02146,0.44669 -0.06427,0.81997 -0.01532,0.0153 -0.01527,0.0153 -0.143793,0.52625 -0.07031,0.17439 -0.14074,0.3488 -0.208061,0.52625 -0.250899,0.47426 -0.578252,0.84144 -0.982104,1.2239 -0.180517,0.11932 -0.358,0.24167 -0.538517,0.36405 -0.02757,0.006 -0.220345,0.10713 -0.694576,0.31213 -0.02445,-0.003 -0.02442,-0.003 -0.253929,0.0765 -0.477295,0.0765 -0.924057,0.11934 -1.376886,0.1224 -0.434475,-0.0367 -0.804672,-0.10707 -1.208567,-0.20193 -0.01527,-0.0153 -0.100962,-0.0337 -0.639445,-0.24173 -0.235619,-0.1132 -0.235587,-0.1132 -0.614981,-0.32738 -0.501785,-0.37634 -0.881203,-0.73735 -1.211628,-1.22383 -0.07956,-0.14075 -0.156035,-0.28152 -0.235593,-0.41919 -0.137689,-0.31517 -0.223337,-0.60889 -0.290655,-0.90264 -0.04591,-0.40992 -0.0459,-0.41001 -0.04893,-0.59045 v -6e-5 c 2e-6,-0.0642 0.003,-0.12544 0.0061,-0.18966 0.0031,-0.101 0.01228,-0.20196 0.01839,-0.2968 0.06425,-0.35494 0.07953,-0.37024 0.07953,-0.42225 0.09789,-0.27227 0.204992,-0.65171 0.370192,-0.90264 0.09177,-0.17431 0.09187,-0.17438 0.293788,-0.48338 0.250894,-0.3121 0.45276,-0.53541 0.746511,-0.79245 1.214671,-0.79858 2.824123,-1.04031 4.124471,-0.24785 0.07038,0.0551 0.143798,0.11013 0.21726,0.16519 0.223332,0.21115 0.379346,0.42228 0.56905,0.72518 0.09795,0.22647 0.174334,0.41312 0.186595,0.70378 -0.07038,0.47423 -0.428342,0.75266 -0.789377,1.05556 -0.452834,0.31515 -0.452802,0.31512 -0.752644,0.53845 -0.162153,0.20501 0.162147,0.511 0.305927,0.72825 0.08874,0.14072 0.266229,0.33956 0.290721,0.53845 -0.183578,0 -0.373287,-0.0979 -0.510981,-0.14993 -0.143812,-0.0551 -0.287634,-0.10705 -0.425321,-0.15906 -0.143809,-0.0581 -0.22942,-0.0979 -0.336526,-0.0887 -0.673113,0.87815 -0.70684,0.94852 -0.783304,0.93323 -0.06731,-0.40694 0.04899,-0.82917 0.04899,-1.21469 -0.01529,-0.0214 -0.03066,-0.0428 -0.04899,-0.0612 -0.39165,-0.24477 -0.86283,-0.29682 -1.2055,-0.52019 -0.003,-0.0122 -0.0031,-0.0244 -0.0031,-0.0367 0.35491,-0.17439 0.816981,-0.25089 1.226963,-0.36106 0.07649,-0.0581 0.07341,-0.19275 0.07646,-0.26312 0.0031,-0.23559 -0.02754,-0.71294 0.0612,-0.89651 0.140751,0.049 0.523227,0.73739 0.624176,0.89651 0.06119,0.0153 0.146828,0.003 0.241663,-0.006 0.32127,-0.0918 0.648713,-0.18666 0.9761,-0.2754 0.0061,-0.0122 0.01521,-0.0245 0.02747,-0.0306 0.07344,-0.11323 0.223454,-0.73427 0.149992,-0.91483 -0.186637,-0.0214 -0.364103,0.0581 -0.510981,0.11019 -0.140746,0.0306 -0.28153,0.0642 -0.422257,0.10093 -0.01529,-0.009 -0.02755,-0.0153 -0.03673,-0.0245 -0.278413,-0.40694 -0.550717,-0.8169 -0.82304,-1.22083 -0.413041,-0.44053 -0.859763,-0.53544 -1.086167,0.101 -0.08568,0.53236 -0.07957,1.11371 -0.100997,1.67363 -0.0031,0.0122 -0.0061,0.0275 -0.0061,0.0428 -0.354917,0.0918 -0.709911,0.18668 -1.061765,0.27846 -0.272288,0.049 -0.596596,0.14079 -0.813842,0.28458 -0.171329,0.10097 -0.257027,0.25391 -0.275392,0.47113 0.01836,0.0612 0.02146,0.18665 0.08266,0.24479 0.260074,0.36104 0.954571,0.55077 1.395155,0.71904 0.189701,0.0734 0.379421,0.15299 0.572183,0.22947 -0.01529,0.33044 -0.03059,0.66093 -0.04587,0.99749 -0.0061,0.009 -0.0092,0.0214 -0.0092,0.0367 v 0.0245 c -0.003,0.11932 -0.0092,0.24167 -0.01225,0.36407 h -0.01834 v 0.38857 h 0.01834 c 0.0031,0.0367 0.0092,0.0704 0.01225,0.11013 0.01529,0.20502 0.113218,0.32437 0.296791,0.48346 0.08568,0.009 0.174382,0.0214 0.263123,0.0367 0.416105,-0.1224 0.624168,-0.46206 0.887307,-0.79252 0.02445,-0.0398 0.05204,-0.0765 0.0796,-0.11626 v -5e-5 c 0.07645,-0.11012 0.152918,-0.21415 0.23246,-0.31813 0.08568,-0.11321 0.171384,-0.22642 0.260123,-0.33659 0.02447,-0.0275 0.04895,-0.052 0.07646,-0.0765 0.364127,0.13463 0.725133,0.27231 1.089234,0.41306 h 0.02148 c 0.149884,0.14992 0.709816,0.22947 0.976032,0.18665 0.07338,-0.052 0.146817,-0.10094 0.220263,-0.15299 0.15295,-0.35491 0.122338,-0.47118 -0.03979,-0.79244 h 6.6e-5 c -0.220339,-0.37021 -0.220369,-0.37022 -0.541581,-0.85671 -0.0857,-0.19276 -0.128503,-0.35189 -0.165261,-0.51404 0.504865,-0.46815 1.028075,-0.83529 1.291161,-1.4931 0.03983,-0.11629 0.05508,-0.13155 0.07346,-0.24172 0.07048,-0.56297 -0.02741,-0.924 -0.29056,-1.39218 -0.217278,-0.32426 -0.455935,-0.58747 -0.697645,-0.84142 -0.149884,-0.1407 -0.44971,-0.45281 -0.611915,-0.51399 -0.01524,-0.0245 -0.01524,-0.0245 -0.46812,-0.23567 -0.119324,-0.0428 -0.241728,-0.0825 -0.357986,-0.12533 -0.434473,-0.14077 -0.87198,-0.22344 -1.281962,-0.27238 h -0.0704 z m 2.279446,7.04945 c 2.64e-4,0 7.94e-4,6e-5 0.0013,6e-5 -2.65e-4,0 -7.94e-4,0 -0.0013,0 z"
         sodipodi:nodetypes="cccccccccccccccccccccccccccccccccccccccccccccccssccccccccccccccccccccccccccccccccccccccccccccscccccccccccccccccccccccccccccccccccc" />
      <path
         style="display:none;fill:#000000;fill-opacity:1;fill-rule:nonzero;stroke:none;stroke-width:0.00712383"
         class="powerclip"
         d="m 45.848678,97.33041 h 34.051204 v 26.03414 H 45.848678 Z m 16.063333,7.89517 c -0.501815,0.0673 -0.92704,0.15305 -1.370693,0.31825 -0.116268,0.0428 -0.257024,0.10093 -0.351856,0.156 -0.312087,0.14689 -0.826132,0.41002 -1.012767,0.66084 -0.110143,0.0704 -0.492633,0.44368 -0.514051,0.52325 -0.09181,0.0489 -0.134617,0.14071 -0.201927,0.2356 -0.128506,0.16527 -0.284536,0.33663 -0.351854,0.54771 -0.358,0.4773 -0.566033,1.30952 -0.651714,1.92148 -0.01222,0 -0.04589,0.31516 -0.0612,0.33352 v 0.0734 0.64252 0.30292 c 0.13463,0.78941 0.318217,1.41967 0.774112,2.12034 0.15603,0.27841 0.507881,0.70375 0.816904,0.92097 0.663961,0.58134 1.523746,1.04638 2.429391,1.26669 0.01529,0.0153 0.156025,0.0367 0.171328,0.052 0.599684,0.10708 0.908722,0.14384 0.972971,0.16833 h 1.012767 c 0.07038,-0.0245 0.07038,-0.0245 0.737378,-0.14686 v -7e-5 c 0.982146,-0.26926 1.799055,-0.7312 2.524188,-1.45942 0.342654,-0.37939 0.342697,-0.37939 0.382519,-0.44059 0.376351,-0.46199 0.630293,-1.0005 0.838308,-1.53595 0.156081,-0.52012 0.15607,-0.52012 0.162129,-0.56298 0.0582,-0.28148 0.05822,-0.28147 0.134665,-0.84138 v -0.71597 c -0.01532,-0.11627 -0.02748,-0.23257 -0.03973,-0.34886 -0.06119,-0.44059 -0.146904,-0.83222 -0.241723,-1.22696 -0.0337,-0.0856 -0.06424,-0.16823 -0.09486,-0.25079 -0.250833,-0.53244 -0.541555,-0.8139 -1.08617,-0.52325 -0.312095,0.29065 -0.312116,0.43753 -0.189725,0.85364 0.09795,0.34268 0.192778,0.68537 0.293725,1.0311 0.07957,0.0765 0.137673,0.79556 0.143793,0.90877 -0.02143,0.44671 -0.02146,0.44669 -0.06427,0.81997 -0.01532,0.0153 -0.01527,0.0153 -0.143793,0.52625 -0.07031,0.17439 -0.14074,0.3488 -0.208061,0.52625 -0.250899,0.47426 -0.578252,0.84144 -0.982104,1.2239 -0.180517,0.11932 -0.358,0.24167 -0.538517,0.36405 -0.02757,0.006 -0.220345,0.10713 -0.694576,0.31213 -0.02445,-0.003 -0.02442,-0.003 -0.253929,0.0765 -0.477295,0.0765 -0.924057,0.11934 -1.376886,0.1224 -0.434475,-0.0367 -0.804672,-0.10707 -1.208567,-0.20193 -0.01527,-0.0153 -0.100962,-0.0337 -0.639445,-0.24173 -0.235619,-0.1132 -0.235587,-0.1132 -0.614981,-0.32738 -0.501785,-0.37634 -0.881203,-0.73735 -1.211628,-1.22383 -0.07956,-0.14075 -0.156035,-0.28152 -0.235593,-0.41919 -0.137689,-0.31517 -0.223337,-0.60889 -0.290655,-0.90264 -0.04591,-0.40992 -0.0459,-0.41001 -0.04893,-0.59045 v -6e-5 c 2e-6,-0.0642 0.003,-0.12544 0.0061,-0.18966 0.0031,-0.101 0.01228,-0.20196 0.01839,-0.2968 0.06425,-0.35494 0.07953,-0.37024 0.07953,-0.42225 0.09789,-0.27227 0.204992,-0.65171 0.370192,-0.90264 0.09177,-0.17431 0.09187,-0.17438 0.293788,-0.48338 0.250894,-0.3121 0.45276,-0.53541 0.746511,-0.79245 1.214671,-0.79858 2.824123,-1.04031 4.124471,-0.24785 0.07038,0.0551 0.143798,0.11013 0.21726,0.16519 0.223332,0.21115 0.379346,0.42228 0.56905,0.72518 0.09795,0.22647 0.174334,0.41312 0.186595,0.70378 -0.07038,0.47423 -0.428342,0.75266 -0.789377,1.05556 -0.452834,0.31515 -0.452802,0.31512 -0.752644,0.53845 -0.162153,0.20501 0.162147,0.511 0.305927,0.72825 0.08874,0.14072 0.266229,0.33956 0.290721,0.53845 -0.183578,0 -0.373287,-0.0979 -0.510981,-0.14993 -0.143812,-0.0551 -0.287634,-0.10705 -0.425321,-0.15906 -0.143809,-0.0581 -0.22942,-0.0979 -0.336526,-0.0887 -0.673113,0.87815 -0.70684,0.94852 -0.783304,0.93323 -0.06731,-0.40694 0.04899,-0.82917 0.04899,-1.21469 -0.01529,-0.0214 -0.03066,-0.0428 -0.04899,-0.0612 -0.39165,-0.24477 -0.86283,-0.29682 -1.2055,-0.52019 -0.003,-0.0122 -0.0031,-0.0244 -0.0031,-0.0367 0.35491,-0.17439 0.816981,-0.25089 1.226963,-0.36106 0.07649,-0.0581 0.07341,-0.19275 0.07646,-0.26312 0.0031,-0.23559 -0.02754,-0.71294 0.0612,-0.89651 0.140751,0.049 0.523227,0.73739 0.624176,0.89651 0.06119,0.0153 0.146828,0.003 0.241663,-0.006 0.32127,-0.0918 0.648713,-0.18666 0.9761,-0.2754 0.0061,-0.0122 0.01521,-0.0245 0.02747,-0.0306 0.07344,-0.11323 0.223454,-0.73427 0.149992,-0.91483 -0.186637,-0.0214 -0.364103,0.0581 -0.510981,0.11019 -0.140746,0.0306 -0.28153,0.0642 -0.422257,0.10093 -0.01529,-0.009 -0.02755,-0.0153 -0.03673,-0.0245 -0.278413,-0.40694 -0.550717,-0.8169 -0.82304,-1.22083 -0.413041,-0.44053 -0.859763,-0.53544 -1.086167,0.101 -0.08568,0.53236 -0.07957,1.11371 -0.100997,1.67363 -0.0031,0.0122 -0.0061,0.0275 -0.0061,0.0428 -0.354917,0.0918 -0.709911,0.18668 -1.061765,0.27846 -0.272288,0.049 -0.596596,0.14079 -0.813842,0.28458 -0.171329,0.10097 -0.257027,0.25391 -0.275392,0.47113 0.01836,0.0612 0.02146,0.18665 0.08266,0.24479 0.260074,0.36104 0.954571,0.55077 1.395155,0.71904 0.189701,0.0734 0.379421,0.15299 0.572183,0.22947 -0.01529,0.33044 -0.03059,0.66093 -0.04587,0.99749 -0.0061,0.009 -0.0092,0.0214 -0.0092,0.0367 v 0.0245 c -0.003,0.11932 -0.0092,0.24167 -0.01225,0.36407 h -0.01834 v 0.38857 h 0.01834 c 0.0031,0.0367 0.0092,0.0704 0.01225,0.11013 0.01529,0.20502 0.113218,0.32437 0.296791,0.48346 0.08568,0.009 0.174382,0.0214 0.263123,0.0367 0.416105,-0.1224 0.624168,-0.46206 0.887307,-0.79252 0.02445,-0.0398 0.05204,-0.0765 0.0796,-0.11626 v -5e-5 c 0.07645,-0.11012 0.152918,-0.21415 0.23246,-0.31813 0.08568,-0.11321 0.171384,-0.22642 0.260123,-0.33659 0.02447,-0.0275 0.04895,-0.052 0.07646,-0.0765 0.364127,0.13463 0.725133,0.27231 1.089234,0.41306 h 0.02148 c 0.149884,0.14992 0.709816,0.22947 0.976032,0.18665 0.07338,-0.052 0.146817,-0.10094 0.220263,-0.15299 0.15295,-0.35491 0.122338,-0.47118 -0.03979,-0.79244 h 6.6e-5 c -0.220339,-0.37021 -0.220369,-0.37022 -0.541581,-0.85671 -0.0857,-0.19276 -0.128503,-0.35189 -0.165261,-0.51404 0.504865,-0.46815 1.028075,-0.83529 1.291161,-1.4931 0.03983,-0.11629 0.05508,-0.13155 0.07346,-0.24172 0.07048,-0.56297 -0.02741,-0.924 -0.29056,-1.39218 -0.217278,-0.32426 -0.455935,-0.58747 -0.697645,-0.84142 -0.149884,-0.1407 -0.44971,-0.45281 -0.611915,-0.51399 -0.01524,-0.0245 -0.01524,-0.0245 -0.46812,-0.23567 -0.119324,-0.0428 -0.241728,-0.0825 -0.357986,-0.12533 -0.434473,-0.14077 -0.87198,-0.22344 -1.281962,-0.27238 h -0.0704 z m 2.279446,7.04945 v 6e-5 c 5.06e-4,0 0.001,0 0.0013,0 -5.06e-4,0 -0.001,-6e-5 -0.0013,-6e-5 z M 45.848678,97.33041 v 26.03414 H 79.899882 V 97.33041 Z m 16.063333,7.89517 c -0.501815,0.0673 -0.92704,0.15305 -1.370693,0.31825 -0.116268,0.0428 -0.257024,0.10093 -0.351856,0.156 -0.312087,0.14689 -0.826132,0.41002 -1.012767,0.66084 -0.110143,0.0704 -0.492633,0.44368 -0.514051,0.52325 -0.09181,0.0489 -0.134617,0.14071 -0.201927,0.2356 -0.128506,0.16527 -0.284536,0.33663 -0.351854,0.54771 -0.358,0.4773 -0.566033,1.30952 -0.651714,1.92148 -0.01222,0 -0.04589,0.31516 -0.0612,0.33352 v 0.0734 0.64252 0.30292 c 0.13463,0.78941 0.318217,1.41967 0.774112,2.12034 0.15603,0.27841 0.507881,0.70375 0.816904,0.92097 0.663961,0.58134 1.523746,1.04638 2.429391,1.26669 0.01529,0.0153 0.156025,0.0367 0.171328,0.052 0.599684,0.10708 0.908722,0.14384 0.972971,0.16833 h 1.012767 c 0.07038,-0.0245 0.07038,-0.0245 0.737378,-0.14686 v -7e-5 c 0.982146,-0.26926 1.799055,-0.7312 2.524188,-1.45942 0.342654,-0.37939 0.342697,-0.37939 0.382519,-0.44059 0.376351,-0.46199 0.630293,-1.0005 0.838308,-1.53595 0.156081,-0.52012 0.15607,-0.52012 0.162129,-0.56298 0.0582,-0.28148 0.05822,-0.28147 0.134665,-0.84138 v -0.71597 c -0.01532,-0.11627 -0.02748,-0.23257 -0.03973,-0.34886 -0.06119,-0.44059 -0.146904,-0.83222 -0.241723,-1.22696 -0.0337,-0.0856 -0.06424,-0.16823 -0.09486,-0.25079 -0.250833,-0.53244 -0.541555,-0.8139 -1.08617,-0.52325 -0.312095,0.29065 -0.312116,0.43753 -0.189725,0.85364 0.09795,0.34268 0.192778,0.68537 0.293725,1.0311 0.07957,0.0765 0.137673,0.79556 0.143793,0.90877 -0.02143,0.44671 -0.02146,0.44669 -0.06427,0.81997 -0.01532,0.0153 -0.01527,0.0153 -0.143793,0.52625 -0.07031,0.17439 -0.14074,0.3488 -0.208061,0.52625 -0.250899,0.47426 -0.578252,0.84144 -0.982104,1.2239 -0.180517,0.11932 -0.358,0.24167 -0.538517,0.36405 -0.02757,0.006 -0.220345,0.10713 -0.694576,0.31213 -0.02445,-0.003 -0.02442,-0.003 -0.253929,0.0765 -0.477295,0.0765 -0.924057,0.11934 -1.376886,0.1224 -0.434475,-0.0367 -0.804672,-0.10707 -1.208567,-0.20193 -0.01527,-0.0153 -0.100962,-0.0337 -0.639445,-0.24173 -0.235619,-0.1132 -0.235587,-0.1132 -0.614981,-0.32738 -0.501785,-0.37634 -0.881203,-0.73735 -1.211628,-1.22383 -0.07956,-0.14075 -0.156035,-0.28152 -0.235593,-0.41919 -0.137689,-0.31517 -0.223337,-0.60889 -0.290655,-0.90264 -0.04591,-0.40992 -0.0459,-0.41001 -0.04893,-0.59045 v -6e-5 c 2e-6,-0.0642 0.003,-0.12544 0.0061,-0.18966 0.0031,-0.101 0.01228,-0.20196 0.01839,-0.2968 0.06425,-0.35494 0.07953,-0.37024 0.07953,-0.42225 0.09789,-0.27227 0.204992,-0.65171 0.370192,-0.90264 0.09177,-0.17431 0.09187,-0.17438 0.293788,-0.48338 0.250894,-0.3121 0.45276,-0.53541 0.746511,-0.79245 1.214671,-0.79858 2.824123,-1.04031 4.124471,-0.24785 0.07038,0.0551 0.143798,0.11013 0.21726,0.16519 0.223332,0.21115 0.379346,0.42228 0.56905,0.72518 0.09795,0.22647 0.174334,0.41312 0.186595,0.70378 -0.07038,0.47423 -0.428342,0.75266 -0.789377,1.05556 -0.452834,0.31515 -0.452802,0.31512 -0.752644,0.53845 -0.162153,0.20501 0.162147,0.511 0.305927,0.72825 0.08874,0.14072 0.266229,0.33956 0.290721,0.53845 -0.183578,0 -0.373287,-0.0979 -0.510981,-0.14993 -0.143812,-0.0551 -0.287634,-0.10705 -0.425321,-0.15906 -0.143809,-0.0581 -0.22942,-0.0979 -0.336526,-0.0887 -0.673113,0.87815 -0.70684,0.94852 -0.783304,0.93323 -0.06731,-0.40694 0.04899,-0.82917 0.04899,-1.21469 -0.01529,-0.0214 -0.03066,-0.0428 -0.04899,-0.0612 -0.39165,-0.24477 -0.86283,-0.29682 -1.2055,-0.52019 -0.003,-0.0122 -0.0031,-0.0244 -0.0031,-0.0367 0.35491,-0.17439 0.816981,-0.25089 1.226963,-0.36106 0.07649,-0.0581 0.07341,-0.19275 0.07646,-0.26312 0.0031,-0.23559 -0.02754,-0.71294 0.0612,-0.89651 0.140751,0.049 0.523227,0.73739 0.624176,0.89651 0.06119,0.0153 0.146828,0.003 0.241663,-0.006 0.32127,-0.0918 0.648713,-0.18666 0.9761,-0.2754 0.0061,-0.0122 0.01521,-0.0245 0.02747,-0.0306 0.07344,-0.11323 0.223454,-0.73427 0.149992,-0.91483 -0.186637,-0.0214 -0.364103,0.0581 -0.510981,0.11019 -0.140746,0.0306 -0.28153,0.0642 -0.422257,0.10093 -0.01529,-0.009 -0.02755,-0.0153 -0.03673,-0.0245 -0.278413,-0.40694 -0.550717,-0.8169 -0.82304,-1.22083 -0.413041,-0.44053 -0.859763,-0.53544 -1.086167,0.101 -0.08568,0.53236 -0.07957,1.11371 -0.100997,1.67363 -0.0031,0.0122 -0.0061,0.0275 -0.0061,0.0428 -0.354917,0.0918 -0.709911,0.18668 -1.061765,0.27846 -0.272288,0.049 -0.596596,0.14079 -0.813842,0.28458 -0.171329,0.10097 -0.257027,0.25391 -0.275392,0.47113 0.01836,0.0612 0.02146,0.18665 0.08266,0.24479 0.260074,0.36104 0.954571,0.55077 1.395155,0.71904 0.189701,0.0734 0.379421,0.15299 0.572183,0.22947 -0.01529,0.33044 -0.03059,0.66093 -0.04587,0.99749 -0.0061,0.009 -0.0092,0.0214 -0.0092,0.0367 v 0.0245 c -0.003,0.11932 -0.0092,0.24167 -0.01225,0.36407 h -0.01834 v 0.38857 h 0.01834 c 0.0031,0.0367 0.0092,0.0704 0.01225,0.11013 0.01529,0.20502 0.113218,0.32437 0.296791,0.48346 0.08568,0.009 0.174382,0.0214 0.263123,0.0367 0.416105,-0.1224 0.624168,-0.46206 0.887307,-0.79252 0.02445,-0.0398 0.05204,-0.0765 0.0796,-0.11626 v -5e-5 c 0.07645,-0.11012 0.152918,-0.21415 0.23246,-0.31813 0.08568,-0.11321 0.171384,-0.22642 0.260123,-0.33659 0.02447,-0.0275 0.04895,-0.052 0.07646,-0.0765 0.364127,0.13463 0.725133,0.27231 1.089234,0.41306 h 0.02148 c 0.149884,0.14992 0.709816,0.22947 0.976032,0.18665 0.07338,-0.052 0.146817,-0.10094 0.220263,-0.15299 0.15295,-0.35491 0.122338,-0.47118 -0.03979,-0.79244 h 6.6e-5 c -0.220339,-0.37021 -0.220369,-0.37022 -0.541581,-0.85671 -0.0857,-0.19276 -0.128503,-0.35189 -0.165261,-0.51404 0.504865,-0.46815 1.028075,-0.83529 1.291161,-1.4931 0.03983,-0.11629 0.05508,-0.13155 0.07346,-0.24172 0.07048,-0.56297 -0.02741,-0.924 -0.29056,-1.39218 -0.217278,-0.32426 -0.455935,-0.58747 -0.697645,-0.84142 -0.149884,-0.1407 -0.44971,-0.45281 -0.611915,-0.51399 -0.01524,-0.0245 -0.01524,-0.0245 -0.46812,-0.23567 -0.119324,-0.0428 -0.241728,-0.0825 -0.357986,-0.12533 -0.434473,-0.14077 -0.87198,-0.22344 -1.281962,-0.27238 h -0.0704 z m 2.279446,7.04945 v 6e-5 c 5.06e-4,0 0.001,0 0.0013,0 -5.06e-4,0 -0.001,-6e-5 -0.0013,-6e-5 z M 45.848678,97.33041 v 26.03414 H 79.899882 V 97.33041 Z m 16.063333,7.89517 c -0.501815,0.0673 -0.92704,0.15305 -1.370693,0.31825 -0.116268,0.0428 -0.257024,0.10093 -0.351856,0.156 -0.312087,0.14689 -0.826132,0.41002 -1.012767,0.66084 -0.110143,0.0704 -0.492633,0.44368 -0.514051,0.52325 -0.09181,0.0489 -0.134617,0.14071 -0.201927,0.2356 -0.128506,0.16527 -0.284536,0.33663 -0.351854,0.54771 -0.358,0.4773 -0.566033,1.30952 -0.651714,1.92148 -0.01222,0 -0.04589,0.31516 -0.0612,0.33352 v 0.0734 0.64252 0.30292 c 0.13463,0.78941 0.318217,1.41967 0.774112,2.12034 0.15603,0.27841 0.507881,0.70375 0.816904,0.92097 0.663961,0.58134 1.523746,1.04638 2.429391,1.26669 0.01529,0.0153 0.156025,0.0367 0.171328,0.052 0.599684,0.10708 0.908722,0.14384 0.972971,0.16833 h 1.012767 c 0.07038,-0.0245 0.07038,-0.0245 0.737378,-0.14686 v -7e-5 c 0.982146,-0.26926 1.799055,-0.7312 2.524188,-1.45942 0.342654,-0.37939 0.342697,-0.37939 0.382519,-0.44059 0.376351,-0.46199 0.630293,-1.0005 0.838308,-1.53595 0.156081,-0.52012 0.15607,-0.52012 0.162129,-0.56298 0.0582,-0.28148 0.05822,-0.28147 0.134665,-0.84138 v -0.71597 c -0.01532,-0.11627 -0.02748,-0.23257 -0.03973,-0.34886 -0.06119,-0.44059 -0.146904,-0.83222 -0.241723,-1.22696 -0.0337,-0.0856 -0.06424,-0.16823 -0.09486,-0.25079 -0.250833,-0.53244 -0.541555,-0.8139 -1.08617,-0.52325 -0.312095,0.29065 -0.312116,0.43753 -0.189725,0.85364 0.09795,0.34268 0.192778,0.68537 0.293725,1.0311 0.07957,0.0765 0.137673,0.79556 0.143793,0.90877 -0.02143,0.44671 -0.02146,0.44669 -0.06427,0.81997 -0.01532,0.0153 -0.01527,0.0153 -0.143793,0.52625 -0.07031,0.17439 -0.14074,0.3488 -0.208061,0.52625 -0.250899,0.47426 -0.578252,0.84144 -0.982104,1.2239 -0.180517,0.11932 -0.358,0.24167 -0.538517,0.36405 -0.02757,0.006 -0.220345,0.10713 -0.694576,0.31213 -0.02445,-0.003 -0.02442,-0.003 -0.253929,0.0765 -0.477295,0.0765 -0.924057,0.11934 -1.376886,0.1224 -0.434475,-0.0367 -0.804672,-0.10707 -1.208567,-0.20193 -0.01527,-0.0153 -0.100962,-0.0337 -0.639445,-0.24173 -0.235619,-0.1132 -0.235587,-0.1132 -0.614981,-0.32738 -0.501785,-0.37634 -0.881203,-0.73735 -1.211628,-1.22383 -0.07956,-0.14075 -0.156035,-0.28152 -0.235593,-0.41919 -0.137689,-0.31517 -0.223337,-0.60889 -0.290655,-0.90264 -0.04591,-0.40992 -0.0459,-0.41001 -0.04893,-0.59045 v -6e-5 c 2e-6,-0.0642 0.003,-0.12544 0.0061,-0.18966 0.0031,-0.101 0.01228,-0.20196 0.01839,-0.2968 0.06425,-0.35494 0.07953,-0.37024 0.07953,-0.42225 0.09789,-0.27227 0.204992,-0.65171 0.370192,-0.90264 0.09177,-0.17431 0.09187,-0.17438 0.293788,-0.48338 0.250894,-0.3121 0.45276,-0.53541 0.746511,-0.79245 1.214671,-0.79858 2.824123,-1.04031 4.124471,-0.24785 0.07038,0.0551 0.143798,0.11013 0.21726,0.16519 0.223332,0.21115 0.379346,0.42228 0.56905,0.72518 0.09795,0.22647 0.174334,0.41312 0.186595,0.70378 -0.07038,0.47423 -0.428342,0.75266 -0.789377,1.05556 -0.452834,0.31515 -0.452802,0.31512 -0.752644,0.53845 -0.162153,0.20501 0.162147,0.511 0.305927,0.72825 0.08874,0.14072 0.266229,0.33956 0.290721,0.53845 -0.183578,0 -0.373287,-0.0979 -0.510981,-0.14993 -0.143812,-0.0551 -0.287634,-0.10705 -0.425321,-0.15906 -0.143809,-0.0581 -0.22942,-0.0979 -0.336526,-0.0887 -0.673113,0.87815 -0.70684,0.94852 -0.783304,0.93323 -0.06731,-0.40694 0.04899,-0.82917 0.04899,-1.21469 -0.01529,-0.0214 -0.03066,-0.0428 -0.04899,-0.0612 -0.39165,-0.24477 -0.86283,-0.29682 -1.2055,-0.52019 -0.003,-0.0122 -0.0031,-0.0244 -0.0031,-0.0367 0.35491,-0.17439 0.816981,-0.25089 1.226963,-0.36106 0.07649,-0.0581 0.07341,-0.19275 0.07646,-0.26312 0.0031,-0.23559 -0.02754,-0.71294 0.0612,-0.89651 0.140751,0.049 0.523227,0.73739 0.624176,0.89651 0.06119,0.0153 0.146828,0.003 0.241663,-0.006 0.32127,-0.0918 0.648713,-0.18666 0.9761,-0.2754 0.0061,-0.0122 0.01521,-0.0245 0.02747,-0.0306 0.07344,-0.11323 0.223454,-0.73427 0.149992,-0.91483 -0.186637,-0.0214 -0.364103,0.0581 -0.510981,0.11019 -0.140746,0.0306 -0.28153,0.0642 -0.422257,0.10093 -0.01529,-0.009 -0.02755,-0.0153 -0.03673,-0.0245 -0.278413,-0.40694 -0.550717,-0.8169 -0.82304,-1.22083 -0.413041,-0.44053 -0.859763,-0.53544 -1.086167,0.101 -0.08568,0.53236 -0.07957,1.11371 -0.100997,1.67363 -0.0031,0.0122 -0.0061,0.0275 -0.0061,0.0428 -0.354917,0.0918 -0.709911,0.18668 -1.061765,0.27846 -0.272288,0.049 -0.596596,0.14079 -0.813842,0.28458 -0.171329,0.10097 -0.257027,0.25391 -0.275392,0.47113 0.01836,0.0612 0.02146,0.18665 0.08266,0.24479 0.260074,0.36104 0.954571,0.55077 1.395155,0.71904 0.189701,0.0734 0.379421,0.15299 0.572183,0.22947 -0.01529,0.33044 -0.03059,0.66093 -0.04587,0.99749 -0.0061,0.009 -0.0092,0.0214 -0.0092,0.0367 v 0.0245 c -0.003,0.11932 -0.0092,0.24167 -0.01225,0.36407 h -0.01834 v 0.38857 h 0.01834 c 0.0031,0.0367 0.0092,0.0704 0.01225,0.11013 0.01529,0.20502 0.113218,0.32437 0.296791,0.48346 0.08568,0.009 0.174382,0.0214 0.263123,0.0367 0.416105,-0.1224 0.624168,-0.46206 0.887307,-0.79252 0.02445,-0.0398 0.05204,-0.0765 0.0796,-0.11626 v -5e-5 c 0.07645,-0.11012 0.152918,-0.21415 0.23246,-0.31813 0.08568,-0.11321 0.171384,-0.22642 0.260123,-0.33659 0.02447,-0.0275 0.04895,-0.052 0.07646,-0.0765 0.364127,0.13463 0.725133,0.27231 1.089234,0.41306 h 0.02148 c 0.149884,0.14992 0.709816,0.22947 0.976032,0.18665 0.07338,-0.052 0.146817,-0.10094 0.220263,-0.15299 0.15295,-0.35491 0.122338,-0.47118 -0.03979,-0.79244 h 6.6e-5 c -0.220339,-0.37021 -0.220369,-0.37022 -0.541581,-0.85671 -0.0857,-0.19276 -0.128503,-0.35189 -0.165261,-0.51404 0.504865,-0.46815 1.028075,-0.83529 1.291161,-1.4931 0.03983,-0.11629 0.05508,-0.13155 0.07346,-0.24172 0.07048,-0.56297 -0.02741,-0.924 -0.29056,-1.39218 -0.217278,-0.32426 -0.455935,-0.58747 -0.697645,-0.84142 -0.149884,-0.1407 -0.44971,-0.45281 -0.611915,-0.51399 -0.01524,-0.0245 -0.01524,-0.0245 -0.46812,-0.23567 -0.119324,-0.0428 -0.241728,-0.0825 -0.357986,-0.12533 -0.434473,-0.14077 -0.87198,-0.22344 -1.281962,-0.27238 h -0.0704 z m 2.279446,7.04945 v 6e-5 c 5.06e-4,0 0.001,0 0.0013,0 -5.06e-4,0 -0.001,-6e-5 -0.0013,-6e-5 z M 45.848678,97.33041 v 26.03414 H 79.899882 V 97.33041 Z m 16.063333,7.89517 c -0.501815,0.0673 -0.92704,0.15305 -1.370693,0.31825 -0.116268,0.0428 -0.257024,0.10093 -0.351856,0.156 -0.312087,0.14689 -0.826132,0.41002 -1.012767,0.66084 -0.110143,0.0704 -0.492633,0.44368 -0.514051,0.52325 -0.09181,0.0489 -0.134617,0.14071 -0.201927,0.2356 -0.128506,0.16527 -0.284536,0.33663 -0.351854,0.54771 -0.358,0.4773 -0.566033,1.30952 -0.651714,1.92148 -0.01222,0 -0.04589,0.31516 -0.0612,0.33352 v 0.0734 0.64252 0.30292 c 0.13463,0.78941 0.318217,1.41967 0.774112,2.12034 0.15603,0.27841 0.507881,0.70375 0.816904,0.92097 0.663961,0.58134 1.523746,1.04638 2.429391,1.26669 0.01529,0.0153 0.156025,0.0367 0.171328,0.052 0.599684,0.10708 0.908722,0.14384 0.972971,0.16833 h 1.012767 c 0.07038,-0.0245 0.07038,-0.0245 0.737378,-0.14686 v -7e-5 c 0.982146,-0.26926 1.799055,-0.7312 2.524188,-1.45942 0.342654,-0.37939 0.342697,-0.37939 0.382519,-0.44059 0.376351,-0.46199 0.630293,-1.0005 0.838308,-1.53595 0.156081,-0.52012 0.15607,-0.52012 0.162129,-0.56298 0.0582,-0.28148 0.05822,-0.28147 0.134665,-0.84138 v -0.71597 c -0.01532,-0.11627 -0.02748,-0.23257 -0.03973,-0.34886 -0.06119,-0.44059 -0.146904,-0.83222 -0.241723,-1.22696 -0.0337,-0.0856 -0.06424,-0.16823 -0.09486,-0.25079 -0.250833,-0.53244 -0.541555,-0.8139 -1.08617,-0.52325 -0.312095,0.29065 -0.312116,0.43753 -0.189725,0.85364 0.09795,0.34268 0.192778,0.68537 0.293725,1.0311 0.07957,0.0765 0.137673,0.79556 0.143793,0.90877 -0.02143,0.44671 -0.02146,0.44669 -0.06427,0.81997 -0.01532,0.0153 -0.01527,0.0153 -0.143793,0.52625 -0.07031,0.17439 -0.14074,0.3488 -0.208061,0.52625 -0.250899,0.47426 -0.578252,0.84144 -0.982104,1.2239 -0.180517,0.11932 -0.358,0.24167 -0.538517,0.36405 -0.02757,0.006 -0.220345,0.10713 -0.694576,0.31213 -0.02445,-0.003 -0.02442,-0.003 -0.253929,0.0765 -0.477295,0.0765 -0.924057,0.11934 -1.376886,0.1224 -0.434475,-0.0367 -0.804672,-0.10707 -1.208567,-0.20193 -0.01527,-0.0153 -0.100962,-0.0337 -0.639445,-0.24173 -0.235619,-0.1132 -0.235587,-0.1132 -0.614981,-0.32738 -0.501785,-0.37634 -0.881203,-0.73735 -1.211628,-1.22383 -0.07956,-0.14075 -0.156035,-0.28152 -0.235593,-0.41919 -0.137689,-0.31517 -0.223337,-0.60889 -0.290655,-0.90264 -0.04591,-0.40992 -0.0459,-0.41001 -0.04893,-0.59045 v -6e-5 c 2e-6,-0.0642 0.003,-0.12544 0.0061,-0.18966 0.0031,-0.101 0.01228,-0.20196 0.01839,-0.2968 0.06425,-0.35494 0.07953,-0.37024 0.07953,-0.42225 0.09789,-0.27227 0.204992,-0.65171 0.370192,-0.90264 0.09177,-0.17431 0.09187,-0.17438 0.293788,-0.48338 0.250894,-0.3121 0.45276,-0.53541 0.746511,-0.79245 1.214671,-0.79858 2.824123,-1.04031 4.124471,-0.24785 0.07038,0.0551 0.143798,0.11013 0.21726,0.16519 0.223332,0.21115 0.379346,0.42228 0.56905,0.72518 0.09795,0.22647 0.174334,0.41312 0.186595,0.70378 -0.07038,0.47423 -0.428342,0.75266 -0.789377,1.05556 -0.452834,0.31515 -0.452802,0.31512 -0.752644,0.53845 -0.162153,0.20501 0.162147,0.511 0.305927,0.72825 0.08874,0.14072 0.266229,0.33956 0.290721,0.53845 -0.183578,0 -0.373287,-0.0979 -0.510981,-0.14993 -0.143812,-0.0551 -0.287634,-0.10705 -0.425321,-0.15906 -0.143809,-0.0581 -0.22942,-0.0979 -0.336526,-0.0887 -0.673113,0.87815 -0.70684,0.94852 -0.783304,0.93323 -0.06731,-0.40694 0.04899,-0.82917 0.04899,-1.21469 -0.01529,-0.0214 -0.03066,-0.0428 -0.04899,-0.0612 -0.39165,-0.24477 -0.86283,-0.29682 -1.2055,-0.52019 -0.003,-0.0122 -0.0031,-0.0244 -0.0031,-0.0367 0.35491,-0.17439 0.816981,-0.25089 1.226963,-0.36106 0.07649,-0.0581 0.07341,-0.19275 0.07646,-0.26312 0.0031,-0.23559 -0.02754,-0.71294 0.0612,-0.89651 0.140751,0.049 0.523227,0.73739 0.624176,0.89651 0.06119,0.0153 0.146828,0.003 0.241663,-0.006 0.32127,-0.0918 0.648713,-0.18666 0.9761,-0.2754 0.0061,-0.0122 0.01521,-0.0245 0.02747,-0.0306 0.07344,-0.11323 0.223454,-0.73427 0.149992,-0.91483 -0.186637,-0.0214 -0.364103,0.0581 -0.510981,0.11019 -0.140746,0.0306 -0.28153,0.0642 -0.422257,0.10093 -0.01529,-0.009 -0.02755,-0.0153 -0.03673,-0.0245 -0.278413,-0.40694 -0.550717,-0.8169 -0.82304,-1.22083 -0.413041,-0.44053 -0.859763,-0.53544 -1.086167,0.101 -0.08568,0.53236 -0.07957,1.11371 -0.100997,1.67363 -0.0031,0.0122 -0.0061,0.0275 -0.0061,0.0428 -0.354917,0.0918 -0.709911,0.18668 -1.061765,0.27846 -0.272288,0.049 -0.596596,0.14079 -0.813842,0.28458 -0.171329,0.10097 -0.257027,0.25391 -0.275392,0.47113 0.01836,0.0612 0.02146,0.18665 0.08266,0.24479 0.260074,0.36104 0.954571,0.55077 1.395155,0.71904 0.189701,0.0734 0.379421,0.15299 0.572183,0.22947 -0.01529,0.33044 -0.03059,0.66093 -0.04587,0.99749 -0.0061,0.009 -0.0092,0.0214 -0.0092,0.0367 v 0.0245 c -0.003,0.11932 -0.0092,0.24167 -0.01225,0.36407 h -0.01834 v 0.38857 h 0.01834 c 0.0031,0.0367 0.0092,0.0704 0.01225,0.11013 0.01529,0.20502 0.113218,0.32437 0.296791,0.48346 0.08568,0.009 0.174382,0.0214 0.263123,0.0367 0.416105,-0.1224 0.624168,-0.46206 0.887307,-0.79252 0.02445,-0.0398 0.05204,-0.0765 0.0796,-0.11626 v -5e-5 c 0.07645,-0.11012 0.152918,-0.21415 0.23246,-0.31813 0.08568,-0.11321 0.171384,-0.22642 0.260123,-0.33659 0.02447,-0.0275 0.04895,-0.052 0.07646,-0.0765 0.364127,0.13463 0.725133,0.27231 1.089234,0.41306 h 0.02148 c 0.149884,0.14992 0.709816,0.22947 0.976032,0.18665 0.07338,-0.052 0.146817,-0.10094 0.220263,-0.15299 0.15295,-0.35491 0.122338,-0.47118 -0.03979,-0.79244 h 6.6e-5 c -0.220339,-0.37021 -0.220369,-0.37022 -0.541581,-0.85671 -0.0857,-0.19276 -0.128503,-0.35189 -0.165261,-0.51404 0.504865,-0.46815 1.028075,-0.83529 1.291161,-1.4931 0.03983,-0.11629 0.05508,-0.13155 0.07346,-0.24172 0.07048,-0.56297 -0.02741,-0.924 -0.29056,-1.39218 -0.217278,-0.32426 -0.455935,-0.58747 -0.697645,-0.84142 -0.149884,-0.1407 -0.44971,-0.45281 -0.611915,-0.51399 -0.01524,-0.0245 -0.01524,-0.0245 -0.46812,-0.23567 -0.119324,-0.0428 -0.241728,-0.0825 -0.357986,-0.12533 -0.434473,-0.14077 -0.87198,-0.22344 -1.281962,-0.27238 h -0.0704 z m 2.279446,7.04945 v 6e-5 c 5.06e-4,0 0.001,0 0.0013,0 -5.06e-4,0 -0.001,-6e-5 -0.0013,-6e-5 z M 45.848678,97.33041 v 26.03414 H 79.899882 V 97.33041 Z m 16.063333,7.89517 c -0.501815,0.0673 -0.92704,0.15305 -1.370693,0.31825 -0.116268,0.0428 -0.257024,0.10093 -0.351856,0.156 -0.312087,0.14689 -0.826132,0.41002 -1.012767,0.66084 -0.110143,0.0704 -0.492633,0.44368 -0.514051,0.52325 -0.09181,0.0489 -0.134617,0.14071 -0.201927,0.2356 -0.128506,0.16527 -0.284536,0.33663 -0.351854,0.54771 -0.358,0.4773 -0.566033,1.30952 -0.651714,1.92148 -0.01222,0 -0.04589,0.31516 -0.0612,0.33352 v 0.0734 0.64252 0.30292 c 0.13463,0.78941 0.318217,1.41967 0.774112,2.12034 0.15603,0.27841 0.507881,0.70375 0.816904,0.92097 0.663961,0.58134 1.523746,1.04638 2.429391,1.26669 0.01529,0.0153 0.156025,0.0367 0.171328,0.052 0.599684,0.10708 0.908722,0.14384 0.972971,0.16833 h 1.012767 c 0.07038,-0.0245 0.07038,-0.0245 0.737378,-0.14686 v -7e-5 c 0.982146,-0.26926 1.799055,-0.7312 2.524188,-1.45942 0.342654,-0.37939 0.342697,-0.37939 0.382519,-0.44059 0.376351,-0.46199 0.630293,-1.0005 0.838308,-1.53595 0.156081,-0.52012 0.15607,-0.52012 0.162129,-0.56298 0.0582,-0.28148 0.05822,-0.28147 0.134665,-0.84138 v -0.71597 c -0.01532,-0.11627 -0.02748,-0.23257 -0.03973,-0.34886 -0.06119,-0.44059 -0.146904,-0.83222 -0.241723,-1.22696 -0.0337,-0.0856 -0.06424,-0.16823 -0.09486,-0.25079 -0.250833,-0.53244 -0.541555,-0.8139 -1.08617,-0.52325 -0.312095,0.29065 -0.312116,0.43753 -0.189725,0.85364 0.09795,0.34268 0.192778,0.68537 0.293725,1.0311 0.07957,0.0765 0.137673,0.79556 0.143793,0.90877 -0.02143,0.44671 -0.02146,0.44669 -0.06427,0.81997 -0.01532,0.0153 -0.01527,0.0153 -0.143793,0.52625 -0.07031,0.17439 -0.14074,0.3488 -0.208061,0.52625 -0.250899,0.47426 -0.578252,0.84144 -0.982104,1.2239 -0.180517,0.11932 -0.358,0.24167 -0.538517,0.36405 -0.02757,0.006 -0.220345,0.10713 -0.694576,0.31213 -0.02445,-0.003 -0.02442,-0.003 -0.253929,0.0765 -0.477295,0.0765 -0.924057,0.11934 -1.376886,0.1224 -0.434475,-0.0367 -0.804672,-0.10707 -1.208567,-0.20193 -0.01527,-0.0153 -0.100962,-0.0337 -0.639445,-0.24173 -0.235619,-0.1132 -0.235587,-0.1132 -0.614981,-0.32738 -0.501785,-0.37634 -0.881203,-0.73735 -1.211628,-1.22383 -0.07956,-0.14075 -0.156035,-0.28152 -0.235593,-0.41919 -0.137689,-0.31517 -0.223337,-0.60889 -0.290655,-0.90264 -0.04591,-0.40992 -0.0459,-0.41001 -0.04893,-0.59045 v -6e-5 c 2e-6,-0.0642 0.003,-0.12544 0.0061,-0.18966 0.0031,-0.101 0.01228,-0.20196 0.01839,-0.2968 0.06425,-0.35494 0.07953,-0.37024 0.07953,-0.42225 0.09789,-0.27227 0.204992,-0.65171 0.370192,-0.90264 0.09177,-0.17431 0.09187,-0.17438 0.293788,-0.48338 0.250894,-0.3121 0.45276,-0.53541 0.746511,-0.79245 1.214671,-0.79858 2.824123,-1.04031 4.124471,-0.24785 0.07038,0.0551 0.143798,0.11013 0.21726,0.16519 0.223332,0.21115 0.379346,0.42228 0.56905,0.72518 0.09795,0.22647 0.174334,0.41312 0.186595,0.70378 -0.07038,0.47423 -0.428342,0.75266 -0.789377,1.05556 -0.452834,0.31515 -0.452802,0.31512 -0.752644,0.53845 -0.162153,0.20501 0.162147,0.511 0.305927,0.72825 0.08874,0.14072 0.266229,0.33956 0.290721,0.53845 -0.183578,0 -0.373287,-0.0979 -0.510981,-0.14993 -0.143812,-0.0551 -0.287634,-0.10705 -0.425321,-0.15906 -0.143809,-0.0581 -0.22942,-0.0979 -0.336526,-0.0887 -0.673113,0.87815 -0.70684,0.94852 -0.783304,0.93323 -0.06731,-0.40694 0.04899,-0.82917 0.04899,-1.21469 -0.01529,-0.0214 -0.03066,-0.0428 -0.04899,-0.0612 -0.39165,-0.24477 -0.86283,-0.29682 -1.2055,-0.52019 -0.003,-0.0122 -0.0031,-0.0244 -0.0031,-0.0367 0.35491,-0.17439 0.816981,-0.25089 1.226963,-0.36106 0.07649,-0.0581 0.07341,-0.19275 0.07646,-0.26312 0.0031,-0.23559 -0.02754,-0.71294 0.0612,-0.89651 0.140751,0.049 0.523227,0.73739 0.624176,0.89651 0.06119,0.0153 0.146828,0.003 0.241663,-0.006 0.32127,-0.0918 0.648713,-0.18666 0.9761,-0.2754 0.0061,-0.0122 0.01521,-0.0245 0.02747,-0.0306 0.07344,-0.11323 0.223454,-0.73427 0.149992,-0.91483 -0.186637,-0.0214 -0.364103,0.0581 -0.510981,0.11019 -0.140746,0.0306 -0.28153,0.0642 -0.422257,0.10093 -0.01529,-0.009 -0.02755,-0.0153 -0.03673,-0.0245 -0.278413,-0.40694 -0.550717,-0.8169 -0.82304,-1.22083 -0.413041,-0.44053 -0.859763,-0.53544 -1.086167,0.101 -0.08568,0.53236 -0.07957,1.11371 -0.100997,1.67363 -0.0031,0.0122 -0.0061,0.0275 -0.0061,0.0428 -0.354917,0.0918 -0.709911,0.18668 -1.061765,0.27846 -0.272288,0.049 -0.596596,0.14079 -0.813842,0.28458 -0.171329,0.10097 -0.257027,0.25391 -0.275392,0.47113 0.01836,0.0612 0.02146,0.18665 0.08266,0.24479 0.260074,0.36104 0.954571,0.55077 1.395155,0.71904 0.189701,0.0734 0.379421,0.15299 0.572183,0.22947 -0.01529,0.33044 -0.03059,0.66093 -0.04587,0.99749 -0.0061,0.009 -0.0092,0.0214 -0.0092,0.0367 v 0.0245 c -0.003,0.11932 -0.0092,0.24167 -0.01225,0.36407 h -0.01834 v 0.38857 h 0.01834 c 0.0031,0.0367 0.0092,0.0704 0.01225,0.11013 0.01529,0.20502 0.113218,0.32437 0.296791,0.48346 0.08568,0.009 0.174382,0.0214 0.263123,0.0367 0.416105,-0.1224 0.624168,-0.46206 0.887307,-0.79252 0.02445,-0.0398 0.05204,-0.0765 0.0796,-0.11626 v -5e-5 c 0.07645,-0.11012 0.152918,-0.21415 0.23246,-0.31813 0.08568,-0.11321 0.171384,-0.22642 0.260123,-0.33659 0.02447,-0.0275 0.04895,-0.052 0.07646,-0.0765 0.364127,0.13463 0.725133,0.27231 1.089234,0.41306 h 0.02148 c 0.149884,0.14992 0.709816,0.22947 0.976032,0.18665 0.07338,-0.052 0.146817,-0.10094 0.220263,-0.15299 0.15295,-0.35491 0.122338,-0.47118 -0.03979,-0.79244 h 6.6e-5 c -0.220339,-0.37021 -0.220369,-0.37022 -0.541581,-0.85671 -0.0857,-0.19276 -0.128503,-0.35189 -0.165261,-0.51404 0.504865,-0.46815 1.028075,-0.83529 1.291161,-1.4931 0.03983,-0.11629 0.05508,-0.13155 0.07346,-0.24172 0.07048,-0.56297 -0.02741,-0.924 -0.29056,-1.39218 -0.217278,-0.32426 -0.455935,-0.58747 -0.697645,-0.84142 -0.149884,-0.1407 -0.44971,-0.45281 -0.611915,-0.51399 -0.01524,-0.0245 -0.01524,-0.0245 -0.46812,-0.23567 -0.119324,-0.0428 -0.241728,-0.0825 -0.357986,-0.12533 -0.434473,-0.14077 -0.87198,-0.22344 -1.281962,-0.27238 h -0.0704 z m 2.279446,7.04945 v 6e-5 c 5.06e-4,0 0.001,0 0.0013,0 -5.06e-4,0 -0.001,-6e-5 -0.0013,-6e-5 z M 45.848678,97.33041 v 26.03414 H 79.899882 V 97.33041 Z m 16.063333,7.89517 c -0.501815,0.0673 -0.92704,0.15305 -1.370693,0.31825 -0.116268,0.0428 -0.257024,0.10093 -0.351856,0.156 -0.312087,0.14689 -0.826132,0.41002 -1.012767,0.66084 -0.110143,0.0704 -0.492633,0.44368 -0.514051,0.52325 -0.09181,0.0489 -0.134617,0.14071 -0.201927,0.2356 -0.128506,0.16527 -0.284536,0.33663 -0.351854,0.54771 -0.358,0.4773 -0.566033,1.30952 -0.651714,1.92148 -0.01222,0 -0.04589,0.31516 -0.0612,0.33352 v 0.0734 0.64252 0.30292 c 0.13463,0.78941 0.318217,1.41967 0.774112,2.12034 0.15603,0.27841 0.507881,0.70375 0.816904,0.92097 0.663961,0.58134 1.523746,1.04638 2.429391,1.26669 0.01529,0.0153 0.156025,0.0367 0.171328,0.052 0.599684,0.10708 0.908722,0.14384 0.972971,0.16833 h 1.012767 c 0.07038,-0.0245 0.07038,-0.0245 0.737378,-0.14686 v -7e-5 c 0.982146,-0.26926 1.799055,-0.7312 2.524188,-1.45942 0.342654,-0.37939 0.342697,-0.37939 0.382519,-0.44059 0.376351,-0.46199 0.630293,-1.0005 0.838308,-1.53595 0.156081,-0.52012 0.15607,-0.52012 0.162129,-0.56298 0.0582,-0.28148 0.05822,-0.28147 0.134665,-0.84138 v -0.71597 c -0.01532,-0.11627 -0.02748,-0.23257 -0.03973,-0.34886 -0.06119,-0.44059 -0.146904,-0.83222 -0.241723,-1.22696 -0.0337,-0.0856 -0.06424,-0.16823 -0.09486,-0.25079 -0.250833,-0.53244 -0.541555,-0.8139 -1.08617,-0.52325 -0.312095,0.29065 -0.312116,0.43753 -0.189725,0.85364 0.09795,0.34268 0.192778,0.68537 0.293725,1.0311 0.07957,0.0765 0.137673,0.79556 0.143793,0.90877 -0.02143,0.44671 -0.02146,0.44669 -0.06427,0.81997 -0.01532,0.0153 -0.01527,0.0153 -0.143793,0.52625 -0.07031,0.17439 -0.14074,0.3488 -0.208061,0.52625 -0.250899,0.47426 -0.578252,0.84144 -0.982104,1.2239 -0.180517,0.11932 -0.358,0.24167 -0.538517,0.36405 -0.02757,0.006 -0.220345,0.10713 -0.694576,0.31213 -0.02445,-0.003 -0.02442,-0.003 -0.253929,0.0765 -0.477295,0.0765 -0.924057,0.11934 -1.376886,0.1224 -0.434475,-0.0367 -0.804672,-0.10707 -1.208567,-0.20193 -0.01527,-0.0153 -0.100962,-0.0337 -0.639445,-0.24173 -0.235619,-0.1132 -0.235587,-0.1132 -0.614981,-0.32738 -0.501785,-0.37634 -0.881203,-0.73735 -1.211628,-1.22383 -0.07956,-0.14075 -0.156035,-0.28152 -0.235593,-0.41919 -0.137689,-0.31517 -0.223337,-0.60889 -0.290655,-0.90264 -0.04591,-0.40992 -0.0459,-0.41001 -0.04893,-0.59045 v -6e-5 c 2e-6,-0.0642 0.003,-0.12544 0.0061,-0.18966 0.0031,-0.101 0.01228,-0.20196 0.01839,-0.2968 0.06425,-0.35494 0.07953,-0.37024 0.07953,-0.42225 0.09789,-0.27227 0.204992,-0.65171 0.370192,-0.90264 0.09177,-0.17431 0.09187,-0.17438 0.293788,-0.48338 0.250894,-0.3121 0.45276,-0.53541 0.746511,-0.79245 1.214671,-0.79858 2.824123,-1.04031 4.124471,-0.24785 0.07038,0.0551 0.143798,0.11013 0.21726,0.16519 0.223332,0.21115 0.379346,0.42228 0.56905,0.72518 0.09795,0.22647 0.174334,0.41312 0.186595,0.70378 -0.07038,0.47423 -0.428342,0.75266 -0.789377,1.05556 -0.452834,0.31515 -0.452802,0.31512 -0.752644,0.53845 -0.162153,0.20501 0.162147,0.511 0.305927,0.72825 0.08874,0.14072 0.266229,0.33956 0.290721,0.53845 -0.183578,0 -0.373287,-0.0979 -0.510981,-0.14993 -0.143812,-0.0551 -0.287634,-0.10705 -0.425321,-0.15906 -0.143809,-0.0581 -0.22942,-0.0979 -0.336526,-0.0887 -0.673113,0.87815 -0.70684,0.94852 -0.783304,0.93323 -0.06731,-0.40694 0.04899,-0.82917 0.04899,-1.21469 -0.01529,-0.0214 -0.03066,-0.0428 -0.04899,-0.0612 -0.39165,-0.24477 -0.86283,-0.29682 -1.2055,-0.52019 -0.003,-0.0122 -0.0031,-0.0244 -0.0031,-0.0367 0.35491,-0.17439 0.816981,-0.25089 1.226963,-0.36106 0.07649,-0.0581 0.07341,-0.19275 0.07646,-0.26312 0.0031,-0.23559 -0.02754,-0.71294 0.0612,-0.89651 0.140751,0.049 0.523227,0.73739 0.624176,0.89651 0.06119,0.0153 0.146828,0.003 0.241663,-0.006 0.32127,-0.0918 0.648713,-0.18666 0.9761,-0.2754 0.0061,-0.0122 0.01521,-0.0245 0.02747,-0.0306 0.07344,-0.11323 0.223454,-0.73427 0.149992,-0.91483 -0.186637,-0.0214 -0.364103,0.0581 -0.510981,0.11019 -0.140746,0.0306 -0.28153,0.0642 -0.422257,0.10093 -0.01529,-0.009 -0.02755,-0.0153 -0.03673,-0.0245 -0.278413,-0.40694 -0.550717,-0.8169 -0.82304,-1.22083 -0.413041,-0.44053 -0.859763,-0.53544 -1.086167,0.101 -0.08568,0.53236 -0.07957,1.11371 -0.100997,1.67363 -0.0031,0.0122 -0.0061,0.0275 -0.0061,0.0428 -0.354917,0.0918 -0.709911,0.18668 -1.061765,0.27846 -0.272288,0.049 -0.596596,0.14079 -0.813842,0.28458 -0.171329,0.10097 -0.257027,0.25391 -0.275392,0.47113 0.01836,0.0612 0.02146,0.18665 0.08266,0.24479 0.260074,0.36104 0.954571,0.55077 1.395155,0.71904 0.189701,0.0734 0.379421,0.15299 0.572183,0.22947 -0.01529,0.33044 -0.03059,0.66093 -0.04587,0.99749 -0.0061,0.009 -0.0092,0.0214 -0.0092,0.0367 v 0.0245 c -0.003,0.11932 -0.0092,0.24167 -0.01225,0.36407 h -0.01834 v 0.38857 h 0.01834 c 0.0031,0.0367 0.0092,0.0704 0.01225,0.11013 0.01529,0.20502 0.113218,0.32437 0.296791,0.48346 0.08568,0.009 0.174382,0.0214 0.263123,0.0367 0.416105,-0.1224 0.624168,-0.46206 0.887307,-0.79252 0.02445,-0.0398 0.05204,-0.0765 0.0796,-0.11626 v -5e-5 c 0.07645,-0.11012 0.152918,-0.21415 0.23246,-0.31813 0.08568,-0.11321 0.171384,-0.22642 0.260123,-0.33659 0.02447,-0.0275 0.04895,-0.052 0.07646,-0.0765 0.364127,0.13463 0.725133,0.27231 1.089234,0.41306 h 0.02148 c 0.149884,0.14992 0.709816,0.22947 0.976032,0.18665 0.07338,-0.052 0.146817,-0.10094 0.220263,-0.15299 0.15295,-0.35491 0.122338,-0.47118 -0.03979,-0.79244 h 6.6e-5 c -0.220339,-0.37021 -0.220369,-0.37022 -0.541581,-0.85671 -0.0857,-0.19276 -0.128503,-0.35189 -0.165261,-0.51404 0.504865,-0.46815 1.028075,-0.83529 1.291161,-1.4931 0.03983,-0.11629 0.05508,-0.13155 0.07346,-0.24172 0.07048,-0.56297 -0.02741,-0.924 -0.29056,-1.39218 -0.217278,-0.32426 -0.455935,-0.58747 -0.697645,-0.84142 -0.149884,-0.1407 -0.44971,-0.45281 -0.611915,-0.51399 -0.01524,-0.0245 -0.01524,-0.0245 -0.46812,-0.23567 -0.119324,-0.0428 -0.241728,-0.0825 -0.357986,-0.12533 -0.434473,-0.14077 -0.87198,-0.22344 -1.281962,-0.27238 h -0.0704 z m 2.279446,7.04945 v 6e-5 c 5.06e-4,0 0.001,0 0.0013,0 -5.06e-4,0 -0.001,-6e-5 -0.0013,-6e-5 z M 45.848678,97.33041 v 26.03414 H 79.899882 V 97.33041 Z m 16.063333,7.89517 c -0.501815,0.0673 -0.92704,0.15305 -1.370693,0.31825 -0.116268,0.0428 -0.257024,0.10093 -0.351856,0.156 -0.312087,0.14689 -0.826132,0.41002 -1.012767,0.66084 -0.110143,0.0704 -0.492633,0.44368 -0.514051,0.52325 -0.09181,0.0489 -0.134617,0.14071 -0.201927,0.2356 -0.128506,0.16527 -0.284536,0.33663 -0.351854,0.54771 -0.358,0.4773 -0.566033,1.30952 -0.651714,1.92148 -0.01222,0 -0.04589,0.31516 -0.0612,0.33352 v 0.0734 0.64252 0.30292 c 0.13463,0.78941 0.318217,1.41967 0.774112,2.12034 0.15603,0.27841 0.507881,0.70375 0.816904,0.92097 0.663961,0.58134 1.523746,1.04638 2.429391,1.26669 0.01529,0.0153 0.156025,0.0367 0.171328,0.052 0.599684,0.10708 0.908722,0.14384 0.972971,0.16833 h 1.012767 c 0.07038,-0.0245 0.07038,-0.0245 0.737378,-0.14686 v -7e-5 c 0.982146,-0.26926 1.799055,-0.7312 2.524188,-1.45942 0.342654,-0.37939 0.342697,-0.37939 0.382519,-0.44059 0.376351,-0.46199 0.630293,-1.0005 0.838308,-1.53595 0.156081,-0.52012 0.15607,-0.52012 0.162129,-0.56298 0.0582,-0.28148 0.05822,-0.28147 0.134665,-0.84138 v -0.71597 c -0.01532,-0.11627 -0.02748,-0.23257 -0.03973,-0.34886 -0.06119,-0.44059 -0.146904,-0.83222 -0.241723,-1.22696 -0.0337,-0.0856 -0.06424,-0.16823 -0.09486,-0.25079 -0.250833,-0.53244 -0.541555,-0.8139 -1.08617,-0.52325 -0.312095,0.29065 -0.312116,0.43753 -0.189725,0.85364 0.09795,0.34268 0.192778,0.68537 0.293725,1.0311 0.07957,0.0765 0.137673,0.79556 0.143793,0.90877 -0.02143,0.44671 -0.02146,0.44669 -0.06427,0.81997 -0.01532,0.0153 -0.01527,0.0153 -0.143793,0.52625 -0.07031,0.17439 -0.14074,0.3488 -0.208061,0.52625 -0.250899,0.47426 -0.578252,0.84144 -0.982104,1.2239 -0.180517,0.11932 -0.358,0.24167 -0.538517,0.36405 -0.02757,0.006 -0.220345,0.10713 -0.694576,0.31213 -0.02445,-0.003 -0.02442,-0.003 -0.253929,0.0765 -0.477295,0.0765 -0.924057,0.11934 -1.376886,0.1224 -0.434475,-0.0367 -0.804672,-0.10707 -1.208567,-0.20193 -0.01527,-0.0153 -0.100962,-0.0337 -0.639445,-0.24173 -0.235619,-0.1132 -0.235587,-0.1132 -0.614981,-0.32738 -0.501785,-0.37634 -0.881203,-0.73735 -1.211628,-1.22383 -0.07956,-0.14075 -0.156035,-0.28152 -0.235593,-0.41919 -0.137689,-0.31517 -0.223337,-0.60889 -0.290655,-0.90264 -0.04591,-0.40992 -0.0459,-0.41001 -0.04893,-0.59045 v -6e-5 c 2e-6,-0.0642 0.003,-0.12544 0.0061,-0.18966 0.0031,-0.101 0.01228,-0.20196 0.01839,-0.2968 0.06425,-0.35494 0.07953,-0.37024 0.07953,-0.42225 0.09789,-0.27227 0.204992,-0.65171 0.370192,-0.90264 0.09177,-0.17431 0.09187,-0.17438 0.293788,-0.48338 0.250894,-0.3121 0.45276,-0.53541 0.746511,-0.79245 1.214671,-0.79858 2.824123,-1.04031 4.124471,-0.24785 0.07038,0.0551 0.143798,0.11013 0.21726,0.16519 0.223332,0.21115 0.379346,0.42228 0.56905,0.72518 0.09795,0.22647 0.174334,0.41312 0.186595,0.70378 -0.07038,0.47423 -0.428342,0.75266 -0.789377,1.05556 -0.452834,0.31515 -0.452802,0.31512 -0.752644,0.53845 -0.162153,0.20501 0.162147,0.511 0.305927,0.72825 0.08874,0.14072 0.266229,0.33956 0.290721,0.53845 -0.183578,0 -0.373287,-0.0979 -0.510981,-0.14993 -0.143812,-0.0551 -0.287634,-0.10705 -0.425321,-0.15906 -0.143809,-0.0581 -0.22942,-0.0979 -0.336526,-0.0887 -0.673113,0.87815 -0.70684,0.94852 -0.783304,0.93323 -0.06731,-0.40694 0.04899,-0.82917 0.04899,-1.21469 -0.01529,-0.0214 -0.03066,-0.0428 -0.04899,-0.0612 -0.39165,-0.24477 -0.86283,-0.29682 -1.2055,-0.52019 -0.003,-0.0122 -0.0031,-0.0244 -0.0031,-0.0367 0.35491,-0.17439 0.816981,-0.25089 1.226963,-0.36106 0.07649,-0.0581 0.07341,-0.19275 0.07646,-0.26312 0.0031,-0.23559 -0.02754,-0.71294 0.0612,-0.89651 0.140751,0.049 0.523227,0.73739 0.624176,0.89651 0.06119,0.0153 0.146828,0.003 0.241663,-0.006 0.32127,-0.0918 0.648713,-0.18666 0.9761,-0.2754 0.0061,-0.0122 0.01521,-0.0245 0.02747,-0.0306 0.07344,-0.11323 0.223454,-0.73427 0.149992,-0.91483 -0.186637,-0.0214 -0.364103,0.0581 -0.510981,0.11019 -0.140746,0.0306 -0.28153,0.0642 -0.422257,0.10093 -0.01529,-0.009 -0.02755,-0.0153 -0.03673,-0.0245 -0.278413,-0.40694 -0.550717,-0.8169 -0.82304,-1.22083 -0.413041,-0.44053 -0.859763,-0.53544 -1.086167,0.101 -0.08568,0.53236 -0.07957,1.11371 -0.100997,1.67363 -0.0031,0.0122 -0.0061,0.0275 -0.0061,0.0428 -0.354917,0.0918 -0.709911,0.18668 -1.061765,0.27846 -0.272288,0.049 -0.596596,0.14079 -0.813842,0.28458 -0.171329,0.10097 -0.257027,0.25391 -0.275392,0.47113 0.01836,0.0612 0.02146,0.18665 0.08266,0.24479 0.260074,0.36104 0.954571,0.55077 1.395155,0.71904 0.189701,0.0734 0.379421,0.15299 0.572183,0.22947 -0.01529,0.33044 -0.03059,0.66093 -0.04587,0.99749 -0.0061,0.009 -0.0092,0.0214 -0.0092,0.0367 v 0.0245 c -0.003,0.11932 -0.0092,0.24167 -0.01225,0.36407 h -0.01834 v 0.38857 h 0.01834 c 0.0031,0.0367 0.0092,0.0704 0.01225,0.11013 0.01529,0.20502 0.113218,0.32437 0.296791,0.48346 0.08568,0.009 0.174382,0.0214 0.263123,0.0367 0.416105,-0.1224 0.624168,-0.46206 0.887307,-0.79252 0.02445,-0.0398 0.05204,-0.0765 0.0796,-0.11626 v -5e-5 c 0.07645,-0.11012 0.152918,-0.21415 0.23246,-0.31813 0.08568,-0.11321 0.171384,-0.22642 0.260123,-0.33659 0.02447,-0.0275 0.04895,-0.052 0.07646,-0.0765 0.364127,0.13463 0.725133,0.27231 1.089234,0.41306 h 0.02148 c 0.149884,0.14992 0.709816,0.22947 0.976032,0.18665 0.07338,-0.052 0.146817,-0.10094 0.220263,-0.15299 0.15295,-0.35491 0.122338,-0.47118 -0.03979,-0.79244 h 6.6e-5 c -0.220339,-0.37021 -0.220369,-0.37022 -0.541581,-0.85671 -0.0857,-0.19276 -0.128503,-0.35189 -0.165261,-0.51404 0.504865,-0.46815 1.028075,-0.83529 1.291161,-1.4931 0.03983,-0.11629 0.05508,-0.13155 0.07346,-0.24172 0.07048,-0.56297 -0.02741,-0.924 -0.29056,-1.39218 -0.217278,-0.32426 -0.455935,-0.58747 -0.697645,-0.84142 -0.149884,-0.1407 -0.44971,-0.45281 -0.611915,-0.51399 -0.01524,-0.0245 -0.01524,-0.0245 -0.46812,-0.23567 -0.119324,-0.0428 -0.241728,-0.0825 -0.357986,-0.12533 -0.434473,-0.14077 -0.87198,-0.22344 -1.281962,-0.27238 h -0.0704 z m 2.279446,7.04945 v 6e-5 c 5.06e-4,0 0.001,0 0.0013,0 -5.06e-4,0 -0.001,-6e-5 -0.0013,-6e-5 z M 45.848678,97.33041 v 26.03414 H 79.899882 V 97.33041 Z m 16.063333,7.89517 c -0.501815,0.0673 -0.92704,0.15305 -1.370693,0.31825 -0.116268,0.0428 -0.257024,0.10093 -0.351856,0.156 -0.312087,0.14689 -0.826132,0.41002 -1.012767,0.66084 -0.110143,0.0704 -0.492633,0.44368 -0.514051,0.52325 -0.09181,0.0489 -0.134617,0.14071 -0.201927,0.2356 -0.128506,0.16527 -0.284536,0.33663 -0.351854,0.54771 -0.358,0.4773 -0.566033,1.30952 -0.651714,1.92148 -0.01222,0 -0.04589,0.31516 -0.0612,0.33352 v 0.0734 0.64252 0.30292 c 0.13463,0.78941 0.318217,1.41967 0.774112,2.12034 0.15603,0.27841 0.507881,0.70375 0.816904,0.92097 0.663961,0.58134 1.523746,1.04638 2.429391,1.26669 0.01529,0.0153 0.156025,0.0367 0.171328,0.052 0.599684,0.10708 0.908722,0.14384 0.972971,0.16833 h 1.012767 c 0.07038,-0.0245 0.07038,-0.0245 0.737378,-0.14686 v -7e-5 c 0.982146,-0.26926 1.799055,-0.7312 2.524188,-1.45942 0.342654,-0.37939 0.342697,-0.37939 0.382519,-0.44059 0.376351,-0.46199 0.630293,-1.0005 0.838308,-1.53595 0.156081,-0.52012 0.15607,-0.52012 0.162129,-0.56298 0.0582,-0.28148 0.05822,-0.28147 0.134665,-0.84138 v -0.71597 c -0.01532,-0.11627 -0.02748,-0.23257 -0.03973,-0.34886 -0.06119,-0.44059 -0.146904,-0.83222 -0.241723,-1.22696 -0.0337,-0.0856 -0.06424,-0.16823 -0.09486,-0.25079 -0.250833,-0.53244 -0.541555,-0.8139 -1.08617,-0.52325 -0.312095,0.29065 -0.312116,0.43753 -0.189725,0.85364 0.09795,0.34268 0.192778,0.68537 0.293725,1.0311 0.07957,0.0765 0.137673,0.79556 0.143793,0.90877 -0.02143,0.44671 -0.02146,0.44669 -0.06427,0.81997 -0.01532,0.0153 -0.01527,0.0153 -0.143793,0.52625 -0.07031,0.17439 -0.14074,0.3488 -0.208061,0.52625 -0.250899,0.47426 -0.578252,0.84144 -0.982104,1.2239 -0.180517,0.11932 -0.358,0.24167 -0.538517,0.36405 -0.02757,0.006 -0.220345,0.10713 -0.694576,0.31213 -0.02445,-0.003 -0.02442,-0.003 -0.253929,0.0765 -0.477295,0.0765 -0.924057,0.11934 -1.376886,0.1224 -0.434475,-0.0367 -0.804672,-0.10707 -1.208567,-0.20193 -0.01527,-0.0153 -0.100962,-0.0337 -0.639445,-0.24173 -0.235619,-0.1132 -0.235587,-0.1132 -0.614981,-0.32738 -0.501785,-0.37634 -0.881203,-0.73735 -1.211628,-1.22383 -0.07956,-0.14075 -0.156035,-0.28152 -0.235593,-0.41919 -0.137689,-0.31517 -0.223337,-0.60889 -0.290655,-0.90264 -0.04591,-0.40992 -0.0459,-0.41001 -0.04893,-0.59045 v -6e-5 c 2e-6,-0.0642 0.003,-0.12544 0.0061,-0.18966 0.0031,-0.101 0.01228,-0.20196 0.01839,-0.2968 0.06425,-0.35494 0.07953,-0.37024 0.07953,-0.42225 0.09789,-0.27227 0.204992,-0.65171 0.370192,-0.90264 0.09177,-0.17431 0.09187,-0.17438 0.293788,-0.48338 0.250894,-0.3121 0.45276,-0.53541 0.746511,-0.79245 1.214671,-0.79858 2.824123,-1.04031 4.124471,-0.24785 0.07038,0.0551 0.143798,0.11013 0.21726,0.16519 0.223332,0.21115 0.379346,0.42228 0.56905,0.72518 0.09795,0.22647 0.174334,0.41312 0.186595,0.70378 -0.07038,0.47423 -0.428342,0.75266 -0.789377,1.05556 -0.452834,0.31515 -0.452802,0.31512 -0.752644,0.53845 -0.162153,0.20501 0.162147,0.511 0.305927,0.72825 0.08874,0.14072 0.266229,0.33956 0.290721,0.53845 -0.183578,0 -0.373287,-0.0979 -0.510981,-0.14993 -0.143812,-0.0551 -0.287634,-0.10705 -0.425321,-0.15906 -0.143809,-0.0581 -0.22942,-0.0979 -0.336526,-0.0887 -0.673113,0.87815 -0.70684,0.94852 -0.783304,0.93323 -0.06731,-0.40694 0.04899,-0.82917 0.04899,-1.21469 -0.01529,-0.0214 -0.03066,-0.0428 -0.04899,-0.0612 -0.39165,-0.24477 -0.86283,-0.29682 -1.2055,-0.52019 -0.003,-0.0122 -0.0031,-0.0244 -0.0031,-0.0367 0.35491,-0.17439 0.816981,-0.25089 1.226963,-0.36106 0.07649,-0.0581 0.07341,-0.19275 0.07646,-0.26312 0.0031,-0.23559 -0.02754,-0.71294 0.0612,-0.89651 0.140751,0.049 0.523227,0.73739 0.624176,0.89651 0.06119,0.0153 0.146828,0.003 0.241663,-0.006 0.32127,-0.0918 0.648713,-0.18666 0.9761,-0.2754 0.0061,-0.0122 0.01521,-0.0245 0.02747,-0.0306 0.07344,-0.11323 0.223454,-0.73427 0.149992,-0.91483 -0.186637,-0.0214 -0.364103,0.0581 -0.510981,0.11019 -0.140746,0.0306 -0.28153,0.0642 -0.422257,0.10093 -0.01529,-0.009 -0.02755,-0.0153 -0.03673,-0.0245 -0.278413,-0.40694 -0.550717,-0.8169 -0.82304,-1.22083 -0.413041,-0.44053 -0.859763,-0.53544 -1.086167,0.101 -0.08568,0.53236 -0.07957,1.11371 -0.100997,1.67363 -0.0031,0.0122 -0.0061,0.0275 -0.0061,0.0428 -0.354917,0.0918 -0.709911,0.18668 -1.061765,0.27846 -0.272288,0.049 -0.596596,0.14079 -0.813842,0.28458 -0.171329,0.10097 -0.257027,0.25391 -0.275392,0.47113 0.01836,0.0612 0.02146,0.18665 0.08266,0.24479 0.260074,0.36104 0.954571,0.55077 1.395155,0.71904 0.189701,0.0734 0.379421,0.15299 0.572183,0.22947 -0.01529,0.33044 -0.03059,0.66093 -0.04587,0.99749 -0.0061,0.009 -0.0092,0.0214 -0.0092,0.0367 v 0.0245 c -0.003,0.11932 -0.0092,0.24167 -0.01225,0.36407 h -0.01834 v 0.38857 h 0.01834 c 0.0031,0.0367 0.0092,0.0704 0.01225,0.11013 0.01529,0.20502 0.113218,0.32437 0.296791,0.48346 0.08568,0.009 0.174382,0.0214 0.263123,0.0367 0.416105,-0.1224 0.624168,-0.46206 0.887307,-0.79252 0.02445,-0.0398 0.05204,-0.0765 0.0796,-0.11626 v -5e-5 c 0.07645,-0.11012 0.152918,-0.21415 0.23246,-0.31813 0.08568,-0.11321 0.171384,-0.22642 0.260123,-0.33659 0.02447,-0.0275 0.04895,-0.052 0.07646,-0.0765 0.364127,0.13463 0.725133,0.27231 1.089234,0.41306 h 0.02148 c 0.149884,0.14992 0.709816,0.22947 0.976032,0.18665 0.07338,-0.052 0.146817,-0.10094 0.220263,-0.15299 0.15295,-0.35491 0.122338,-0.47118 -0.03979,-0.79244 h 6.6e-5 c -0.220339,-0.37021 -0.220369,-0.37022 -0.541581,-0.85671 -0.0857,-0.19276 -0.128503,-0.35189 -0.165261,-0.51404 0.504865,-0.46815 1.028075,-0.83529 1.291161,-1.4931 0.03983,-0.11629 0.05508,-0.13155 0.07346,-0.24172 0.07048,-0.56297 -0.02741,-0.924 -0.29056,-1.39218 -0.217278,-0.32426 -0.455935,-0.58747 -0.697645,-0.84142 -0.149884,-0.1407 -0.44971,-0.45281 -0.611915,-0.51399 -0.01524,-0.0245 -0.01524,-0.0245 -0.46812,-0.23567 -0.119324,-0.0428 -0.241728,-0.0825 -0.357986,-0.12533 -0.434473,-0.14077 -0.87198,-0.22344 -1.281962,-0.27238 h -0.0704 z m 2.279446,7.04945 v 6e-5 c 5.06e-4,0 0.001,0 0.0013,0 -5.06e-4,0 -0.001,-6e-5 -0.0013,-6e-5 z M 45.848678,97.33041 v 26.03414 H 79.899882 V 97.33041 Z m 16.063333,7.89517 c -0.501815,0.0673 -0.92704,0.15305 -1.370693,0.31825 -0.116268,0.0428 -0.257024,0.10093 -0.351856,0.156 -0.312087,0.14689 -0.826132,0.41002 -1.012767,0.66084 -0.110143,0.0704 -0.492633,0.44368 -0.514051,0.52325 -0.09181,0.0489 -0.134617,0.14071 -0.201927,0.2356 -0.128506,0.16527 -0.284536,0.33663 -0.351854,0.54771 -0.358,0.4773 -0.566033,1.30952 -0.651714,1.92148 -0.01222,0 -0.04589,0.31516 -0.0612,0.33352 v 0.0734 0.64252 0.30292 c 0.13463,0.78941 0.318217,1.41967 0.774112,2.12034 0.15603,0.27841 0.507881,0.70375 0.816904,0.92097 0.663961,0.58134 1.523746,1.04638 2.429391,1.26669 0.01529,0.0153 0.156025,0.0367 0.171328,0.052 0.599684,0.10708 0.908722,0.14384 0.972971,0.16833 h 1.012767 c 0.07038,-0.0245 0.07038,-0.0245 0.737378,-0.14686 v -7e-5 c 0.982146,-0.26926 1.799055,-0.7312 2.524188,-1.45942 0.342654,-0.37939 0.342697,-0.37939 0.382519,-0.44059 0.376351,-0.46199 0.630293,-1.0005 0.838308,-1.53595 0.156081,-0.52012 0.15607,-0.52012 0.162129,-0.56298 0.0582,-0.28148 0.05822,-0.28147 0.134665,-0.84138 v -0.71597 c -0.01532,-0.11627 -0.02748,-0.23257 -0.03973,-0.34886 -0.06119,-0.44059 -0.146904,-0.83222 -0.241723,-1.22696 -0.0337,-0.0856 -0.06424,-0.16823 -0.09486,-0.25079 -0.250833,-0.53244 -0.541555,-0.8139 -1.08617,-0.52325 -0.312095,0.29065 -0.312116,0.43753 -0.189725,0.85364 0.09795,0.34268 0.192778,0.68537 0.293725,1.0311 0.07957,0.0765 0.137673,0.79556 0.143793,0.90877 -0.02143,0.44671 -0.02146,0.44669 -0.06427,0.81997 -0.01532,0.0153 -0.01527,0.0153 -0.143793,0.52625 -0.07031,0.17439 -0.14074,0.3488 -0.208061,0.52625 -0.250899,0.47426 -0.578252,0.84144 -0.982104,1.2239 -0.180517,0.11932 -0.358,0.24167 -0.538517,0.36405 -0.02757,0.006 -0.220345,0.10713 -0.694576,0.31213 -0.02445,-0.003 -0.02442,-0.003 -0.253929,0.0765 -0.477295,0.0765 -0.924057,0.11934 -1.376886,0.1224 -0.434475,-0.0367 -0.804672,-0.10707 -1.208567,-0.20193 -0.01527,-0.0153 -0.100962,-0.0337 -0.639445,-0.24173 -0.235619,-0.1132 -0.235587,-0.1132 -0.614981,-0.32738 -0.501785,-0.37634 -0.881203,-0.73735 -1.211628,-1.22383 -0.07956,-0.14075 -0.156035,-0.28152 -0.235593,-0.41919 -0.137689,-0.31517 -0.223337,-0.60889 -0.290655,-0.90264 -0.04591,-0.40992 -0.0459,-0.41001 -0.04893,-0.59045 v -6e-5 c 2e-6,-0.0642 0.003,-0.12544 0.0061,-0.18966 0.0031,-0.101 0.01228,-0.20196 0.01839,-0.2968 0.06425,-0.35494 0.07953,-0.37024 0.07953,-0.42225 0.09789,-0.27227 0.204992,-0.65171 0.370192,-0.90264 0.09177,-0.17431 0.09187,-0.17438 0.293788,-0.48338 0.250894,-0.3121 0.45276,-0.53541 0.746511,-0.79245 1.214671,-0.79858 2.824123,-1.04031 4.124471,-0.24785 0.07038,0.0551 0.143798,0.11013 0.21726,0.16519 0.223332,0.21115 0.379346,0.42228 0.56905,0.72518 0.09795,0.22647 0.174334,0.41312 0.186595,0.70378 -0.07038,0.47423 -0.428342,0.75266 -0.789377,1.05556 -0.452834,0.31515 -0.452802,0.31512 -0.752644,0.53845 -0.162153,0.20501 0.162147,0.511 0.305927,0.72825 0.08874,0.14072 0.266229,0.33956 0.290721,0.53845 -0.183578,0 -0.373287,-0.0979 -0.510981,-0.14993 -0.143812,-0.0551 -0.287634,-0.10705 -0.425321,-0.15906 -0.143809,-0.0581 -0.22942,-0.0979 -0.336526,-0.0887 -0.673113,0.87815 -0.70684,0.94852 -0.783304,0.93323 -0.06731,-0.40694 0.04899,-0.82917 0.04899,-1.21469 -0.01529,-0.0214 -0.03066,-0.0428 -0.04899,-0.0612 -0.39165,-0.24477 -0.86283,-0.29682 -1.2055,-0.52019 -0.003,-0.0122 -0.0031,-0.0244 -0.0031,-0.0367 0.35491,-0.17439 0.816981,-0.25089 1.226963,-0.36106 0.07649,-0.0581 0.07341,-0.19275 0.07646,-0.26312 0.0031,-0.23559 -0.02754,-0.71294 0.0612,-0.89651 0.140751,0.049 0.523227,0.73739 0.624176,0.89651 0.06119,0.0153 0.146828,0.003 0.241663,-0.006 0.32127,-0.0918 0.648713,-0.18666 0.9761,-0.2754 0.0061,-0.0122 0.01521,-0.0245 0.02747,-0.0306 0.07344,-0.11323 0.223454,-0.73427 0.149992,-0.91483 -0.186637,-0.0214 -0.364103,0.0581 -0.510981,0.11019 -0.140746,0.0306 -0.28153,0.0642 -0.422257,0.10093 -0.01529,-0.009 -0.02755,-0.0153 -0.03673,-0.0245 -0.278413,-0.40694 -0.550717,-0.8169 -0.82304,-1.22083 -0.413041,-0.44053 -0.859763,-0.53544 -1.086167,0.101 -0.08568,0.53236 -0.07957,1.11371 -0.100997,1.67363 -0.0031,0.0122 -0.0061,0.0275 -0.0061,0.0428 -0.354917,0.0918 -0.709911,0.18668 -1.061765,0.27846 -0.272288,0.049 -0.596596,0.14079 -0.813842,0.28458 -0.171329,0.10097 -0.257027,0.25391 -0.275392,0.47113 0.01836,0.0612 0.02146,0.18665 0.08266,0.24479 0.260074,0.36104 0.954571,0.55077 1.395155,0.71904 0.189701,0.0734 0.379421,0.15299 0.572183,0.22947 -0.01529,0.33044 -0.03059,0.66093 -0.04587,0.99749 -0.0061,0.009 -0.0092,0.0214 -0.0092,0.0367 v 0.0245 c -0.003,0.11932 -0.0092,0.24167 -0.01225,0.36407 h -0.01834 v 0.38857 h 0.01834 c 0.0031,0.0367 0.0092,0.0704 0.01225,0.11013 0.01529,0.20502 0.113218,0.32437 0.296791,0.48346 0.08568,0.009 0.174382,0.0214 0.263123,0.0367 0.416105,-0.1224 0.624168,-0.46206 0.887307,-0.79252 0.02445,-0.0398 0.05204,-0.0765 0.0796,-0.11626 v -5e-5 c 0.07645,-0.11012 0.152918,-0.21415 0.23246,-0.31813 0.08568,-0.11321 0.171384,-0.22642 0.260123,-0.33659 0.02447,-0.0275 0.04895,-0.052 0.07646,-0.0765 0.364127,0.13463 0.725133,0.27231 1.089234,0.41306 h 0.02148 c 0.149884,0.14992 0.709816,0.22947 0.976032,0.18665 0.07338,-0.052 0.146817,-0.10094 0.220263,-0.15299 0.15295,-0.35491 0.122338,-0.47118 -0.03979,-0.79244 h 6.6e-5 c -0.220339,-0.37021 -0.220369,-0.37022 -0.541581,-0.85671 -0.0857,-0.19276 -0.128503,-0.35189 -0.165261,-0.51404 0.504865,-0.46815 1.028075,-0.83529 1.291161,-1.4931 0.03983,-0.11629 0.05508,-0.13155 0.07346,-0.24172 0.07048,-0.56297 -0.02741,-0.924 -0.29056,-1.39218 -0.217278,-0.32426 -0.455935,-0.58747 -0.697645,-0.84142 -0.149884,-0.1407 -0.44971,-0.45281 -0.611915,-0.51399 -0.01524,-0.0245 -0.01524,-0.0245 -0.46812,-0.23567 -0.119324,-0.0428 -0.241728,-0.0825 -0.357986,-0.12533 -0.434473,-0.14077 -0.87198,-0.22344 -1.281962,-0.27238 h -0.0704 z m 2.279446,7.04945 v 6e-5 c 5.06e-4,0 0.001,0 0.0013,0 -5.06e-4,0 -0.001,-6e-5 -0.0013,-6e-5 z M 45.848678,97.33041 v 26.03414 H 79.899882 V 97.33041 Z m 16.063333,7.89517 c -0.501815,0.0673 -0.92704,0.15305 -1.370693,0.31825 -0.116268,0.0428 -0.257024,0.10093 -0.351856,0.156 -0.312087,0.14689 -0.826132,0.41002 -1.012767,0.66084 -0.110143,0.0704 -0.492633,0.44368 -0.514051,0.52325 -0.09181,0.0489 -0.134617,0.14071 -0.201927,0.2356 -0.128506,0.16527 -0.284536,0.33663 -0.351854,0.54771 -0.358,0.4773 -0.566033,1.30952 -0.651714,1.92148 -0.01222,0 -0.04589,0.31516 -0.0612,0.33352 v 0.0734 0.64252 0.30292 c 0.13463,0.78941 0.318217,1.41967 0.774112,2.12034 0.15603,0.27841 0.507881,0.70375 0.816904,0.92097 0.663961,0.58134 1.523746,1.04638 2.429391,1.26669 0.01529,0.0153 0.156025,0.0367 0.171328,0.052 0.599684,0.10708 0.908722,0.14384 0.972971,0.16833 h 1.012767 c 0.07038,-0.0245 0.07038,-0.0245 0.737378,-0.14686 v -7e-5 c 0.982146,-0.26926 1.799055,-0.7312 2.524188,-1.45942 0.342654,-0.37939 0.342697,-0.37939 0.382519,-0.44059 0.376351,-0.46199 0.630293,-1.0005 0.838308,-1.53595 0.156081,-0.52012 0.15607,-0.52012 0.162129,-0.56298 0.0582,-0.28148 0.05822,-0.28147 0.134665,-0.84138 v -0.71597 c -0.01532,-0.11627 -0.02748,-0.23257 -0.03973,-0.34886 -0.06119,-0.44059 -0.146904,-0.83222 -0.241723,-1.22696 -0.0337,-0.0856 -0.06424,-0.16823 -0.09486,-0.25079 -0.250833,-0.53244 -0.541555,-0.8139 -1.08617,-0.52325 -0.312095,0.29065 -0.312116,0.43753 -0.189725,0.85364 0.09795,0.34268 0.192778,0.68537 0.293725,1.0311 0.07957,0.0765 0.137673,0.79556 0.143793,0.90877 -0.02143,0.44671 -0.02146,0.44669 -0.06427,0.81997 -0.01532,0.0153 -0.01527,0.0153 -0.143793,0.52625 -0.07031,0.17439 -0.14074,0.3488 -0.208061,0.52625 -0.250899,0.47426 -0.578252,0.84144 -0.982104,1.2239 -0.180517,0.11932 -0.358,0.24167 -0.538517,0.36405 -0.02757,0.006 -0.220345,0.10713 -0.694576,0.31213 -0.02445,-0.003 -0.02442,-0.003 -0.253929,0.0765 -0.477295,0.0765 -0.924057,0.11934 -1.376886,0.1224 -0.434475,-0.0367 -0.804672,-0.10707 -1.208567,-0.20193 -0.01527,-0.0153 -0.100962,-0.0337 -0.639445,-0.24173 -0.235619,-0.1132 -0.235587,-0.1132 -0.614981,-0.32738 -0.501785,-0.37634 -0.881203,-0.73735 -1.211628,-1.22383 -0.07956,-0.14075 -0.156035,-0.28152 -0.235593,-0.41919 -0.137689,-0.31517 -0.223337,-0.60889 -0.290655,-0.90264 -0.04591,-0.40992 -0.0459,-0.41001 -0.04893,-0.59045 v -6e-5 c 2e-6,-0.0642 0.003,-0.12544 0.0061,-0.18966 0.0031,-0.101 0.01228,-0.20196 0.01839,-0.2968 0.06425,-0.35494 0.07953,-0.37024 0.07953,-0.42225 0.09789,-0.27227 0.204992,-0.65171 0.370192,-0.90264 0.09177,-0.17431 0.09187,-0.17438 0.293788,-0.48338 0.250894,-0.3121 0.45276,-0.53541 0.746511,-0.79245 1.214671,-0.79858 2.824123,-1.04031 4.124471,-0.24785 0.07038,0.0551 0.143798,0.11013 0.21726,0.16519 0.223332,0.21115 0.379346,0.42228 0.56905,0.72518 0.09795,0.22647 0.174334,0.41312 0.186595,0.70378 -0.07038,0.47423 -0.428342,0.75266 -0.789377,1.05556 -0.452834,0.31515 -0.452802,0.31512 -0.752644,0.53845 -0.162153,0.20501 0.162147,0.511 0.305927,0.72825 0.08874,0.14072 0.266229,0.33956 0.290721,0.53845 -0.183578,0 -0.373287,-0.0979 -0.510981,-0.14993 -0.143812,-0.0551 -0.287634,-0.10705 -0.425321,-0.15906 -0.143809,-0.0581 -0.22942,-0.0979 -0.336526,-0.0887 -0.673113,0.87815 -0.70684,0.94852 -0.783304,0.93323 -0.06731,-0.40694 0.04899,-0.82917 0.04899,-1.21469 -0.01529,-0.0214 -0.03066,-0.0428 -0.04899,-0.0612 -0.39165,-0.24477 -0.86283,-0.29682 -1.2055,-0.52019 -0.003,-0.0122 -0.0031,-0.0244 -0.0031,-0.0367 0.35491,-0.17439 0.816981,-0.25089 1.226963,-0.36106 0.07649,-0.0581 0.07341,-0.19275 0.07646,-0.26312 0.0031,-0.23559 -0.02754,-0.71294 0.0612,-0.89651 0.140751,0.049 0.523227,0.73739 0.624176,0.89651 0.06119,0.0153 0.146828,0.003 0.241663,-0.006 0.32127,-0.0918 0.648713,-0.18666 0.9761,-0.2754 0.0061,-0.0122 0.01521,-0.0245 0.02747,-0.0306 0.07344,-0.11323 0.223454,-0.73427 0.149992,-0.91483 -0.186637,-0.0214 -0.364103,0.0581 -0.510981,0.11019 -0.140746,0.0306 -0.28153,0.0642 -0.422257,0.10093 -0.01529,-0.009 -0.02755,-0.0153 -0.03673,-0.0245 -0.278413,-0.40694 -0.550717,-0.8169 -0.82304,-1.22083 -0.413041,-0.44053 -0.859763,-0.53544 -1.086167,0.101 -0.08568,0.53236 -0.07957,1.11371 -0.100997,1.67363 -0.0031,0.0122 -0.0061,0.0275 -0.0061,0.0428 -0.354917,0.0918 -0.709911,0.18668 -1.061765,0.27846 -0.272288,0.049 -0.596596,0.14079 -0.813842,0.28458 -0.171329,0.10097 -0.257027,0.25391 -0.275392,0.47113 0.01836,0.0612 0.02146,0.18665 0.08266,0.24479 0.260074,0.36104 0.954571,0.55077 1.395155,0.71904 0.189701,0.0734 0.379421,0.15299 0.572183,0.22947 -0.01529,0.33044 -0.03059,0.66093 -0.04587,0.99749 -0.0061,0.009 -0.0092,0.0214 -0.0092,0.0367 v 0.0245 c -0.003,0.11932 -0.0092,0.24167 -0.01225,0.36407 h -0.01834 v 0.38857 h 0.01834 c 0.0031,0.0367 0.0092,0.0704 0.01225,0.11013 0.01529,0.20502 0.113218,0.32437 0.296791,0.48346 0.08568,0.009 0.174382,0.0214 0.263123,0.0367 0.416105,-0.1224 0.624168,-0.46206 0.887307,-0.79252 0.02445,-0.0398 0.05204,-0.0765 0.0796,-0.11626 v -5e-5 c 0.07645,-0.11012 0.152918,-0.21415 0.23246,-0.31813 0.08568,-0.11321 0.171384,-0.22642 0.260123,-0.33659 0.02447,-0.0275 0.04895,-0.052 0.07646,-0.0765 0.364127,0.13463 0.725133,0.27231 1.089234,0.41306 h 0.02148 c 0.149884,0.14992 0.709816,0.22947 0.976032,0.18665 0.07338,-0.052 0.146817,-0.10094 0.220263,-0.15299 0.15295,-0.35491 0.122338,-0.47118 -0.03979,-0.79244 h 6.6e-5 c -0.220339,-0.37021 -0.220369,-0.37022 -0.541581,-0.85671 -0.0857,-0.19276 -0.128503,-0.35189 -0.165261,-0.51404 0.504865,-0.46815 1.028075,-0.83529 1.291161,-1.4931 0.03983,-0.11629 0.05508,-0.13155 0.07346,-0.24172 0.07048,-0.56297 -0.02741,-0.924 -0.29056,-1.39218 -0.217278,-0.32426 -0.455935,-0.58747 -0.697645,-0.84142 -0.149884,-0.1407 -0.44971,-0.45281 -0.611915,-0.51399 -0.01524,-0.0245 -0.01524,-0.0245 -0.46812,-0.23567 -0.119324,-0.0428 -0.241728,-0.0825 -0.357986,-0.12533 -0.434473,-0.14077 -0.87198,-0.22344 -1.281962,-0.27238 h -0.0704 z m 2.279446,7.04945 v 6e-5 c 5.06e-4,0 0.001,0 0.0013,0 -5.06e-4,0 -0.001,-6e-5 -0.0013,-6e-5 z M 45.848678,97.33041 v 26.03414 H 79.899882 V 97.33041 Z m 16.063333,7.89517 c -0.501815,0.0673 -0.92704,0.15305 -1.370693,0.31825 -0.116268,0.0428 -0.257024,0.10093 -0.351856,0.156 -0.312087,0.14689 -0.826132,0.41002 -1.012767,0.66084 -0.110143,0.0704 -0.492633,0.44368 -0.514051,0.52325 -0.09181,0.0489 -0.134617,0.14071 -0.201927,0.2356 -0.128506,0.16527 -0.284536,0.33663 -0.351854,0.54771 -0.358,0.4773 -0.566033,1.30952 -0.651714,1.92148 -0.01222,0 -0.04589,0.31516 -0.0612,0.33352 v 0.0734 0.64252 0.30292 c 0.13463,0.78941 0.318217,1.41967 0.774112,2.12034 0.15603,0.27841 0.507881,0.70375 0.816904,0.92097 0.663961,0.58134 1.523746,1.04638 2.429391,1.26669 0.01529,0.0153 0.156025,0.0367 0.171328,0.052 0.599684,0.10708 0.908722,0.14384 0.972971,0.16833 h 1.012767 c 0.07038,-0.0245 0.07038,-0.0245 0.737378,-0.14686 v -7e-5 c 0.982146,-0.26926 1.799055,-0.7312 2.524188,-1.45942 0.342654,-0.37939 0.342697,-0.37939 0.382519,-0.44059 0.376351,-0.46199 0.630293,-1.0005 0.838308,-1.53595 0.156081,-0.52012 0.15607,-0.52012 0.162129,-0.56298 0.0582,-0.28148 0.05822,-0.28147 0.134665,-0.84138 v -0.71597 c -0.01532,-0.11627 -0.02748,-0.23257 -0.03973,-0.34886 -0.06119,-0.44059 -0.146904,-0.83222 -0.241723,-1.22696 -0.0337,-0.0856 -0.06424,-0.16823 -0.09486,-0.25079 -0.250833,-0.53244 -0.541555,-0.8139 -1.08617,-0.52325 -0.312095,0.29065 -0.312116,0.43753 -0.189725,0.85364 0.09795,0.34268 0.192778,0.68537 0.293725,1.0311 0.07957,0.0765 0.137673,0.79556 0.143793,0.90877 -0.02143,0.44671 -0.02146,0.44669 -0.06427,0.81997 -0.01532,0.0153 -0.01527,0.0153 -0.143793,0.52625 -0.07031,0.17439 -0.14074,0.3488 -0.208061,0.52625 -0.250899,0.47426 -0.578252,0.84144 -0.982104,1.2239 -0.180517,0.11932 -0.358,0.24167 -0.538517,0.36405 -0.02757,0.006 -0.220345,0.10713 -0.694576,0.31213 -0.02445,-0.003 -0.02442,-0.003 -0.253929,0.0765 -0.477295,0.0765 -0.924057,0.11934 -1.376886,0.1224 -0.434475,-0.0367 -0.804672,-0.10707 -1.208567,-0.20193 -0.01527,-0.0153 -0.100962,-0.0337 -0.639445,-0.24173 -0.235619,-0.1132 -0.235587,-0.1132 -0.614981,-0.32738 -0.501785,-0.37634 -0.881203,-0.73735 -1.211628,-1.22383 -0.07956,-0.14075 -0.156035,-0.28152 -0.235593,-0.41919 -0.137689,-0.31517 -0.223337,-0.60889 -0.290655,-0.90264 -0.04591,-0.40992 -0.0459,-0.41001 -0.04893,-0.59045 v -6e-5 c 2e-6,-0.0642 0.003,-0.12544 0.0061,-0.18966 0.0031,-0.101 0.01228,-0.20196 0.01839,-0.2968 0.06425,-0.35494 0.07953,-0.37024 0.07953,-0.42225 0.09789,-0.27227 0.204992,-0.65171 0.370192,-0.90264 0.09177,-0.17431 0.09187,-0.17438 0.293788,-0.48338 0.250894,-0.3121 0.45276,-0.53541 0.746511,-0.79245 1.214671,-0.79858 2.824123,-1.04031 4.124471,-0.24785 0.07038,0.0551 0.143798,0.11013 0.21726,0.16519 0.223332,0.21115 0.379346,0.42228 0.56905,0.72518 0.09795,0.22647 0.174334,0.41312 0.186595,0.70378 -0.07038,0.47423 -0.428342,0.75266 -0.789377,1.05556 -0.452834,0.31515 -0.452802,0.31512 -0.752644,0.53845 -0.162153,0.20501 0.162147,0.511 0.305927,0.72825 0.08874,0.14072 0.266229,0.33956 0.290721,0.53845 -0.183578,0 -0.373287,-0.0979 -0.510981,-0.14993 -0.143812,-0.0551 -0.287634,-0.10705 -0.425321,-0.15906 -0.143809,-0.0581 -0.22942,-0.0979 -0.336526,-0.0887 -0.673113,0.87815 -0.70684,0.94852 -0.783304,0.93323 -0.06731,-0.40694 0.04899,-0.82917 0.04899,-1.21469 -0.01529,-0.0214 -0.03066,-0.0428 -0.04899,-0.0612 -0.39165,-0.24477 -0.86283,-0.29682 -1.2055,-0.52019 -0.003,-0.0122 -0.0031,-0.0244 -0.0031,-0.0367 0.35491,-0.17439 0.816981,-0.25089 1.226963,-0.36106 0.07649,-0.0581 0.07341,-0.19275 0.07646,-0.26312 0.0031,-0.23559 -0.02754,-0.71294 0.0612,-0.89651 0.140751,0.049 0.523227,0.73739 0.624176,0.89651 0.06119,0.0153 0.146828,0.003 0.241663,-0.006 0.32127,-0.0918 0.648713,-0.18666 0.9761,-0.2754 0.0061,-0.0122 0.01521,-0.0245 0.02747,-0.0306 0.07344,-0.11323 0.223454,-0.73427 0.149992,-0.91483 -0.186637,-0.0214 -0.364103,0.0581 -0.510981,0.11019 -0.140746,0.0306 -0.28153,0.0642 -0.422257,0.10093 -0.01529,-0.009 -0.02755,-0.0153 -0.03673,-0.0245 -0.278413,-0.40694 -0.550717,-0.8169 -0.82304,-1.22083 -0.413041,-0.44053 -0.859763,-0.53544 -1.086167,0.101 -0.08568,0.53236 -0.07957,1.11371 -0.100997,1.67363 -0.0031,0.0122 -0.0061,0.0275 -0.0061,0.0428 -0.354917,0.0918 -0.709911,0.18668 -1.061765,0.27846 -0.272288,0.049 -0.596596,0.14079 -0.813842,0.28458 -0.171329,0.10097 -0.257027,0.25391 -0.275392,0.47113 0.01836,0.0612 0.02146,0.18665 0.08266,0.24479 0.260074,0.36104 0.954571,0.55077 1.395155,0.71904 0.189701,0.0734 0.379421,0.15299 0.572183,0.22947 -0.01529,0.33044 -0.03059,0.66093 -0.04587,0.99749 -0.0061,0.009 -0.0092,0.0214 -0.0092,0.0367 v 0.0245 c -0.003,0.11932 -0.0092,0.24167 -0.01225,0.36407 h -0.01834 v 0.38857 h 0.01834 c 0.0031,0.0367 0.0092,0.0704 0.01225,0.11013 0.01529,0.20502 0.113218,0.32437 0.296791,0.48346 0.08568,0.009 0.174382,0.0214 0.263123,0.0367 0.416105,-0.1224 0.624168,-0.46206 0.887307,-0.79252 0.02445,-0.0398 0.05204,-0.0765 0.0796,-0.11626 v -5e-5 c 0.07645,-0.11012 0.152918,-0.21415 0.23246,-0.31813 0.08568,-0.11321 0.171384,-0.22642 0.260123,-0.33659 0.02447,-0.0275 0.04895,-0.052 0.07646,-0.0765 0.364127,0.13463 0.725133,0.27231 1.089234,0.41306 h 0.02148 c 0.149884,0.14992 0.709816,0.22947 0.976032,0.18665 0.07338,-0.052 0.146817,-0.10094 0.220263,-0.15299 0.15295,-0.35491 0.122338,-0.47118 -0.03979,-0.79244 h 6.6e-5 c -0.220339,-0.37021 -0.220369,-0.37022 -0.541581,-0.85671 -0.0857,-0.19276 -0.128503,-0.35189 -0.165261,-0.51404 0.504865,-0.46815 1.028075,-0.83529 1.291161,-1.4931 0.03983,-0.11629 0.05508,-0.13155 0.07346,-0.24172 0.07048,-0.56297 -0.02741,-0.924 -0.29056,-1.39218 -0.217278,-0.32426 -0.455935,-0.58747 -0.697645,-0.84142 -0.149884,-0.1407 -0.44971,-0.45281 -0.611915,-0.51399 -0.01524,-0.0245 -0.01524,-0.0245 -0.46812,-0.23567 -0.119324,-0.0428 -0.241728,-0.0825 -0.357986,-0.12533 -0.434473,-0.14077 -0.87198,-0.22344 -1.281962,-0.27238 h -0.0704 z m 2.279446,7.04945 v 6e-5 c 5.06e-4,0 0.001,0 0.0013,0 -5.06e-4,0 -0.001,-6e-5 -0.0013,-6e-5 z"
         id="lpe_path-effect19332" />
      <path
         style="display:block;fill:#000000;fill-opacity:1;fill-rule:nonzero;stroke:none;stroke-width:0.00712383"
         class="powerclip"
         id="path21388"
         d="m 45.848678,97.33041 h 34.051204 v 26.03414 H 45.848678 Z m 16.063333,7.89517 c -0.501815,0.0673 -0.92704,0.15305 -1.370693,0.31825 -0.116268,0.0428 -0.257024,0.10093 -0.351856,0.156 -0.312087,0.14689 -0.826132,0.41002 -1.012767,0.66084 -0.110143,0.0704 -0.492633,0.44368 -0.514051,0.52325 -0.09181,0.0489 -0.134617,0.14071 -0.201927,0.2356 -0.128506,0.16527 -0.284536,0.33663 -0.351854,0.54771 -0.358,0.4773 -0.566033,1.30952 -0.651714,1.92148 -0.01222,0 -0.04589,0.31516 -0.0612,0.33352 v 0.0734 0.64252 0.30292 c 0.13463,0.78941 0.318217,1.41967 0.774112,2.12034 0.15603,0.27841 0.507881,0.70375 0.816904,0.92097 0.663961,0.58134 1.523746,1.04638 2.429391,1.26669 0.01529,0.0153 0.156025,0.0367 0.171328,0.052 0.599684,0.10708 0.908722,0.14384 0.972971,0.16833 h 1.012767 c 0.07038,-0.0245 0.07038,-0.0245 0.737378,-0.14686 v -7e-5 c 0.982146,-0.26926 1.799055,-0.7312 2.524188,-1.45942 0.342654,-0.37939 0.342697,-0.37939 0.382519,-0.44059 0.376351,-0.46199 0.630293,-1.0005 0.838308,-1.53595 0.156081,-0.52012 0.15607,-0.52012 0.162129,-0.56298 0.0582,-0.28148 0.05822,-0.28147 0.134665,-0.84138 v -0.71597 c -0.01532,-0.11627 -0.02748,-0.23257 -0.03973,-0.34886 -0.06119,-0.44059 -0.146904,-0.83222 -0.241723,-1.22696 -0.0337,-0.0856 -0.06424,-0.16823 -0.09486,-0.25079 -0.250833,-0.53244 -0.541555,-0.8139 -1.08617,-0.52325 -0.312095,0.29065 -0.312116,0.43753 -0.189725,0.85364 0.09795,0.34268 0.192778,0.68537 0.293725,1.0311 0.07957,0.0765 0.137673,0.79556 0.143793,0.90877 -0.02143,0.44671 -0.02146,0.44669 -0.06427,0.81997 -0.01532,0.0153 -0.01527,0.0153 -0.143793,0.52625 -0.07031,0.17439 -0.14074,0.3488 -0.208061,0.52625 -0.250899,0.47426 -0.578252,0.84144 -0.982104,1.2239 -0.180517,0.11932 -0.358,0.24167 -0.538517,0.36405 -0.02757,0.006 -0.220345,0.10713 -0.694576,0.31213 -0.02445,-0.003 -0.02442,-0.003 -0.253929,0.0765 -0.477295,0.0765 -0.924057,0.11934 -1.376886,0.1224 -0.434475,-0.0367 -0.804672,-0.10707 -1.208567,-0.20193 -0.01527,-0.0153 -0.100962,-0.0337 -0.639445,-0.24173 -0.235619,-0.1132 -0.235587,-0.1132 -0.614981,-0.32738 -0.501785,-0.37634 -0.881203,-0.73735 -1.211628,-1.22383 -0.07956,-0.14075 -0.156035,-0.28152 -0.235593,-0.41919 -0.137689,-0.31517 -0.223337,-0.60889 -0.290655,-0.90264 -0.04591,-0.40992 -0.0459,-0.41001 -0.04893,-0.59045 v -6e-5 c 2e-6,-0.0642 0.003,-0.12544 0.0061,-0.18966 0.0031,-0.101 0.01228,-0.20196 0.01839,-0.2968 0.06425,-0.35494 0.07953,-0.37024 0.07953,-0.42225 0.09789,-0.27227 0.204992,-0.65171 0.370192,-0.90264 0.09177,-0.17431 0.09187,-0.17438 0.293788,-0.48338 0.250894,-0.3121 0.45276,-0.53541 0.746511,-0.79245 1.214671,-0.79858 2.824123,-1.04031 4.124471,-0.24785 0.07038,0.0551 0.143798,0.11013 0.21726,0.16519 0.223332,0.21115 0.379346,0.42228 0.56905,0.72518 0.09795,0.22647 0.174334,0.41312 0.186595,0.70378 -0.07038,0.47423 -0.428342,0.75266 -0.789377,1.05556 -0.452834,0.31515 -0.452802,0.31512 -0.752644,0.53845 -0.162153,0.20501 0.162147,0.511 0.305927,0.72825 0.08874,0.14072 0.266229,0.33956 0.290721,0.53845 -0.183578,0 -0.373287,-0.0979 -0.510981,-0.14993 -0.143812,-0.0551 -0.287634,-0.10705 -0.425321,-0.15906 -0.143809,-0.0581 -0.22942,-0.0979 -0.336526,-0.0887 -0.673113,0.87815 -0.70684,0.94852 -0.783304,0.93323 -0.06731,-0.40694 0.04899,-0.82917 0.04899,-1.21469 -0.01529,-0.0214 -0.03066,-0.0428 -0.04899,-0.0612 -0.39165,-0.24477 -0.86283,-0.29682 -1.2055,-0.52019 -0.003,-0.0122 -0.0031,-0.0244 -0.0031,-0.0367 0.35491,-0.17439 0.816981,-0.25089 1.226963,-0.36106 0.07649,-0.0581 0.07341,-0.19275 0.07646,-0.26312 0.0031,-0.23559 -0.02754,-0.71294 0.0612,-0.89651 0.140751,0.049 0.523227,0.73739 0.624176,0.89651 0.06119,0.0153 0.146828,0.003 0.241663,-0.006 0.32127,-0.0918 0.648713,-0.18666 0.9761,-0.2754 0.0061,-0.0122 0.01521,-0.0245 0.02747,-0.0306 0.07344,-0.11323 0.223454,-0.73427 0.149992,-0.91483 -0.186637,-0.0214 -0.364103,0.0581 -0.510981,0.11019 -0.140746,0.0306 -0.28153,0.0642 -0.422257,0.10093 -0.01529,-0.009 -0.02755,-0.0153 -0.03673,-0.0245 -0.278413,-0.40694 -0.550717,-0.8169 -0.82304,-1.22083 -0.413041,-0.44053 -0.859763,-0.53544 -1.086167,0.101 -0.08568,0.53236 -0.07957,1.11371 -0.100997,1.67363 -0.0031,0.0122 -0.0061,0.0275 -0.0061,0.0428 -0.354917,0.0918 -0.709911,0.18668 -1.061765,0.27846 -0.272288,0.049 -0.596596,0.14079 -0.813842,0.28458 -0.171329,0.10097 -0.257027,0.25391 -0.275392,0.47113 0.01836,0.0612 0.02146,0.18665 0.08266,0.24479 0.260074,0.36104 0.954571,0.55077 1.395155,0.71904 0.189701,0.0734 0.379421,0.15299 0.572183,0.22947 -0.01529,0.33044 -0.03059,0.66093 -0.04587,0.99749 -0.0061,0.009 -0.0092,0.0214 -0.0092,0.0367 v 0.0245 c -0.003,0.11932 -0.0092,0.24167 -0.01225,0.36407 h -0.01834 v 0.38857 h 0.01834 c 0.0031,0.0367 0.0092,0.0704 0.01225,0.11013 0.01529,0.20502 0.113218,0.32437 0.296791,0.48346 0.08568,0.009 0.174382,0.0214 0.263123,0.0367 0.416105,-0.1224 0.624168,-0.46206 0.887307,-0.79252 0.02445,-0.0398 0.05204,-0.0765 0.0796,-0.11626 v -5e-5 c 0.07645,-0.11012 0.152918,-0.21415 0.23246,-0.31813 0.08568,-0.11321 0.171384,-0.22642 0.260123,-0.33659 0.02447,-0.0275 0.04895,-0.052 0.07646,-0.0765 0.364127,0.13463 0.725133,0.27231 1.089234,0.41306 h 0.02148 c 0.149884,0.14992 0.709816,0.22947 0.976032,0.18665 0.07338,-0.052 0.146817,-0.10094 0.220263,-0.15299 0.15295,-0.35491 0.122338,-0.47118 -0.03979,-0.79244 h 6.6e-5 c -0.220339,-0.37021 -0.220369,-0.37022 -0.541581,-0.85671 -0.0857,-0.19276 -0.128503,-0.35189 -0.165261,-0.51404 0.504865,-0.46815 1.028075,-0.83529 1.291161,-1.4931 0.03983,-0.11629 0.05508,-0.13155 0.07346,-0.24172 0.07048,-0.56297 -0.02741,-0.924 -0.29056,-1.39218 -0.217278,-0.32426 -0.455935,-0.58747 -0.697645,-0.84142 -0.149884,-0.1407 -0.44971,-0.45281 -0.611915,-0.51399 -0.01524,-0.0245 -0.01524,-0.0245 -0.46812,-0.23567 -0.119324,-0.0428 -0.241728,-0.0825 -0.357986,-0.12533 -0.434473,-0.14077 -0.87198,-0.22344 -1.281962,-0.27238 h -0.0704 z m 2.279446,7.04945 v 6e-5 c 5.06e-4,0 0.001,0 0.0013,0 -5.06e-4,0 -0.001,-6e-5 -0.0013,-6e-5 z" />
    </clipPath>
    <inkscape:path-effect
       effect="powerclip"
       id="path-effect19332"
       is_visible="true"
       lpeversion="1"
       inverse="true"
       flatten="false"
       hide_clip="false"
       message="Utilice la regla de relleno parimpar en el dilogo &lt;b&gt;Relleno y borde&lt;/b&gt; si el resultado no est aplanada despus de convertir el recorte en trayectos." />
  </defs>
  <sodipodi:namedview
     id="namedview2090"
     pagecolor="#ffffff"
     bordercolor="#666666"
     borderopacity="1.0"
     inkscape:pageshadow="2"
     inkscape:pageopacity="0.0"
     inkscape:pagecheckerboard="0"
     showgrid="false"
     inkscape:zoom="3.4500595"
     inkscape:cx="91.302774"
     inkscape:cy="96.520076"
     inkscape:window-width="1920"
     inkscape:window-height="1138"
     inkscape:window-x="-8"
     inkscape:window-y="-8"
     inkscape:window-maximized="1"
     inkscape:current-layer="svg2088" />
  <g
     id="g2324">
    <path
       fill-rule="evenodd"
       clip-rule="evenodd"
       d="M25.6389 0L156.361 0C165.276 0 168.509 0.928256 171.768 2.67133C175.028 4.4144 177.586 6.97228 179.329 10.2315C181.072 13.4908 182 16.7237 182 25.6389V156.361C182 165.276 181.072 168.509 179.329 171.768C177.586 175.028 175.028 177.586 171.768 179.329C168.509 181.072 165.276 182 156.361 182H25.6389C16.7237 182 13.4908 181.072 10.2315 179.329C6.97228 177.586 4.4144 175.028 2.67133 171.768C0.928256 168.509 0 165.276 0 156.361L0 25.6389C0 16.7237 0.928256 13.4908 2.67133 10.2315C4.4144 6.97228 6.97228 4.4144 10.2315 2.67133C13.4908 0.928256 16.7237 0 25.6389 0Z"
       fill="#041E42"
       id="path2080" />
    <g
       id="g21460"
       style="fill:#ffffff"
       transform="matrix(2.5523303,0,0,2.5523303,25.25447,52.999611)">
      <g
         id="g19367"
         transform="translate(-6.4598555,-130.78232)"
         style="fill:#ffffff">
        <g
           id="g19349"
           transform="translate(-24.882791,28.452158)"
           style="fill:#ffffff">
          <text
             xml:space="preserve"
             style="font-style:normal;font-weight:normal;font-size:7.0904px;line-height:1.25;font-family:sans-serif;fill:#ffffff;fill-opacity:1;stroke:none;stroke-width:0.17726"
             x="30.826832"
             y="125.5267"
             id="text8608-0"><tspan
               sodipodi:role="line"
               id="tspan8606-3"
               style="font-style:normal;font-variant:normal;font-weight:900;font-stretch:normal;font-size:7.0904px;font-family:Arial;-inkscape-font-specification:'Arial, Heavy';font-variant-ligatures:normal;font-variant-caps:normal;font-variant-numeric:normal;font-variant-east-asian:normal;fill:#ffffff;stroke-width:0.17726"
               x="30.826832"
               y="125.5267">EducaMadrid</tspan></text>
          <text
             xml:space="preserve"
             style="font-style:normal;font-variant:normal;font-weight:normal;font-stretch:normal;font-size:5.20171px;line-height:1.25;font-family:sans-serif;-inkscape-font-specification:'sans-serif, Normal';font-variant-ligatures:normal;font-variant-caps:normal;font-variant-numeric:normal;font-variant-east-asian:normal;fill:#ffffff;fill-opacity:1;stroke:none;stroke-width:0.264583"
             x="31.379284"
             y="118.29089"
             id="text14782"><tspan
               sodipodi:role="line"
               id="tspan14780"
               style="font-style:normal;font-variant:normal;font-weight:normal;font-stretch:normal;font-size:5.20171px;font-family:sans-serif;-inkscape-font-specification:'sans-serif, Normal';font-variant-ligatures:normal;font-variant-caps:normal;font-variant-numeric:normal;font-variant-east-asian:normal;fill:#ffffff;stroke-width:0.264583"
               x="31.379284"
               y="118.29089">Cloud</tspan></text>
          <path
             d="m 70.239961,108.3833 c -0.681451,-3.45736 -3.717915,-6.05289 -7.365681,-6.05289 -2.896166,0 -5.411521,1.6435 -6.664188,4.04862 -3.016422,0.32068 -5.361414,2.87612 -5.361414,5.97272 0,3.31706 2.695739,6.0128 6.012801,6.0128 h 13.027736 c 2.765888,0 5.010667,-2.24478 5.010667,-5.01067 0,-2.64563 -2.054374,-4.7902 -4.659921,-4.97058 z"
             id="path1322"
             style="fill:#ffffff;stroke-width:1.00213"
             clip-path="url(#clipPath19328)"
             inkscape:path-effect="#path-effect19332"
             inkscape:original-d="m 70.239961,108.3833 c -0.681451,-3.45736 -3.717915,-6.05289 -7.365681,-6.05289 -2.896166,0 -5.411521,1.6435 -6.664188,4.04862 -3.016422,0.32068 -5.361414,2.87612 -5.361414,5.97272 0,3.31706 2.695739,6.0128 6.012801,6.0128 h 13.027736 c 2.765888,0 5.010667,-2.24478 5.010667,-5.01067 0,-2.64563 -2.054374,-4.7902 -4.659921,-4.97058 z" />
        </g>
      </g>
    </g>
  </g>
</svg>
