<?xml version="1.0" encoding="UTF-8" standalone="no"?>
<svg
   width="128"
   height="128"
   viewBox="0 0 128 128"
   fill="none"
   version="1.1"
   id="svg838"
   sodipodi:docname="owncloud-icon.svg"
   inkscape:version="1.1 (c68e22c387, 2021-05-23)"
   xmlns:inkscape="http://www.inkscape.org/namespaces/inkscape"
   xmlns:sodipodi="http://sodipodi.sourceforge.net/DTD/sodipodi-0.dtd"
   xmlns="http://www.w3.org/2000/svg"
   xmlns:svg="http://www.w3.org/2000/svg">
  <defs
     id="defs842">
    <inkscape:path-effect
       effect="powerclip"
       id="path-effect1356"
       is_visible="true"
       lpeversion="1"
       inverse="true"
       flatten="false"
       hide_clip="false"
       message="Utilice la regla de relleno parimpar en el diálogo &lt;b&gt;Relleno y borde&lt;/b&gt; si el resultado no está aplanada después de convertir el recorte en trayectos." />
    <pattern
       id="EMFhbasepattern"
       patternUnits="userSpaceOnUse"
       width="6"
       height="6"
       x="0"
       y="0" />
    <filter
       id="mask-powermask-path-effect4768_inverse"
       inkscape:label="filtermask-powermask-path-effect4768"
       style="color-interpolation-filters:sRGB"
       height="100"
       width="100"
       x="-50"
       y="-50">
      <feColorMatrix
         id="mask-powermask-path-effect4768_primitive1"
         values="1"
         type="saturate"
         result="fbSourceGraphic" />
      <feColorMatrix
         id="mask-powermask-path-effect4768_primitive2"
         values="-1 0 0 0 1 0 -1 0 0 1 0 0 -1 0 1 0 0 0 1 0 "
         in="fbSourceGraphic" />
    </filter>
    <filter
       id="mask-powermask-path-effect4802_inverse"
       inkscape:label="filtermask-powermask-path-effect4802"
       style="color-interpolation-filters:sRGB"
       height="100"
       width="100"
       x="-50"
       y="-50">
      <feColorMatrix
         id="mask-powermask-path-effect4802_primitive1"
         values="1"
         type="saturate"
         result="fbSourceGraphic" />
      <feColorMatrix
         id="mask-powermask-path-effect4802_primitive2"
         values="-1 0 0 0 1 0 -1 0 0 1 0 0 -1 0 1 0 0 0 1 0 "
         in="fbSourceGraphic" />
    </filter>
    <filter
       id="mask-powermask-path-effect4812_inverse"
       inkscape:label="filtermask-powermask-path-effect4812"
       style="color-interpolation-filters:sRGB"
       height="100"
       width="100"
       x="-50"
       y="-50">
      <feColorMatrix
         id="mask-powermask-path-effect4812_primitive1"
         values="1"
         type="saturate"
         result="fbSourceGraphic" />
      <feColorMatrix
         id="mask-powermask-path-effect4812_primitive2"
         values="-1 0 0 0 1 0 -1 0 0 1 0 0 -1 0 1 0 0 0 1 0 "
         in="fbSourceGraphic" />
    </filter>
    <clipPath
       clipPathUnits="userSpaceOnUse"
       id="clipPath1352">
      <path
         id="path1354"
         style="display:none;fill:#000000;fill-opacity:1;fill-rule:nonzero;stroke:none;stroke-width:0.00710867"
         d="M 11.03978,6.8890006 C 10.539033,6.956177 10.114713,7.0417283 9.6720053,7.2065806 9.555984,7.2493023 9.415528,7.3072936 9.3208986,7.3622443 9.0094743,7.5088243 8.4965233,7.7713893 8.3102856,8.0216823 8.200377,8.0919146 7.818704,8.4644163 7.7973306,8.5438176 7.7057213,8.5926543 7.663,8.6842233 7.595833,8.7789106 7.4676003,8.943829 7.311904,9.11483 7.244728,9.3254606 6.8874906,9.8017416 6.679899,10.632187 6.5944016,11.242841 c -0.012191,0 -0.045794,0.314496 -0.061068,0.332813 v 0.07324 0.641146 0.302278 c 0.1343443,0.787726 0.3175377,1.416649 0.772463,2.115823 0.1556987,0.277823 0.5068,0.702253 0.8151653,0.919009 0.6625474,0.580107 1.5205027,1.044158 2.4242201,1.263998 0.01527,0.01527 0.155693,0.03661 0.170962,0.05189 0.598406,0.106852 0.906786,0.143532 0.970899,0.167968 h 1.010612 c 0.07023,-0.02444 0.07023,-0.02442 0.735807,-0.146549 v -6.6e-5 c 0.980057,-0.268687 1.795226,-0.729648 2.518816,-1.456315 0.341923,-0.378587 0.341966,-0.378587 0.381704,-0.439649 0.37555,-0.461011 0.62895,-0.99837 0.836524,-1.532683 0.155746,-0.519011 0.155736,-0.519018 0.161783,-0.561785 0.05808,-0.280877 0.0581,-0.280865 0.134377,-0.839582 v -0.714452 c -0.01529,-0.116019 -0.02742,-0.23207 -0.03965,-0.348113 -0.06106,-0.439656 -0.146591,-0.83045 -0.241208,-1.2243487 -0.03363,-0.085442 -0.0641,-0.16787 -0.09466,-0.25026 -0.2503,-0.5313007 -0.540402,-0.8121687 -1.083858,-0.5221363 -0.311429,0.290032 -0.31145,0.436606 -0.18932,0.8518233 0.09774,0.3419527 0.192367,0.6839097 0.293098,1.0289057 0.0794,0.07633 0.13738,0.793872 0.143487,0.906836 -0.02139,0.445763 -0.0214,0.445743 -0.06413,0.818228 -0.01529,0.01527 -0.01525,0.01525 -0.143486,0.525131 -0.07016,0.174019 -0.14044,0.348053 -0.207618,0.52513 -0.250366,0.47325 -0.577022,0.839645 -0.980012,1.221288 -0.180135,0.11907 -0.357239,0.241157 -0.537372,0.363281 -0.02751,0.0061 -0.219875,0.106894 -0.693097,0.311459 -0.02439,-0.003 -0.02436,-0.0031 -0.253388,0.0763 -0.476279,0.07634 -0.922089,0.119089 -1.373954,0.122138 -0.433552,-0.03663 -0.802961,-0.10684 -1.205995,-0.201499 -0.01523,-0.01525 -0.100747,-0.03359 -0.638083,-0.241211 C 9.922302,15.269914 9.9223336,15.269914 9.5437483,15.056187 9.0430316,14.680649 8.6644213,14.320405 8.3347003,13.834961 8.25531,13.69451 8.1789976,13.554044 8.0996086,13.416668 7.9622126,13.102169 7.876745,12.809078 7.8095703,12.515953 7.763756,12.106897 7.7637636,12.106812 7.7607413,11.926758 v -6.6e-5 c 2.3e-6,-0.0641 0.00299,-0.125166 0.00606,-0.189256 0.00305,-0.100776 0.012246,-0.20153 0.018357,-0.29616 0.064112,-0.354189 0.079361,-0.369453 0.079361,-0.421355 C 7.9622026,10.748226 8.069075,10.369594 8.2339216,10.119207 8.3254946,9.9452643 8.325593,9.94519 8.5270846,9.6368486 8.7774443,9.3254206 8.978883,9.102577 9.272008,8.8460933 10.484091,8.049214 12.090118,7.807997 13.387697,8.598765 c 0.07023,0.05495 0.143492,0.1098933 0.216799,0.1648413 0.222856,0.2107 0.378536,0.4213747 0.567836,0.7236333 0.09774,0.2259844 0.173965,0.4122457 0.186198,0.7022804 -0.07023,0.473222 -0.427429,0.75106 -0.787695,1.05332 -0.451869,0.314472 -0.451839,0.314441 -0.751041,0.537303 -0.161808,0.204571 0.161801,0.509909 0.305274,0.726694 0.08855,0.140424 0.265664,0.338843 0.290103,0.537302 -0.183188,0 -0.372493,-0.09771 -0.509894,-0.149608 -0.143504,-0.05495 -0.28702,-0.106823 -0.424415,-0.158724 -0.143503,-0.05801 -0.228932,-0.09771 -0.335808,-0.08854 -0.671682,0.876284 -0.705336,0.946502 -0.781639,0.931249 -0.06717,-0.406082 0.04889,-0.82741 0.04889,-1.212108 -0.01527,-0.02138 -0.0306,-0.04273 -0.04889,-0.06107 -0.390815,-0.244248 -0.860992,-0.296187 -1.202932,-0.519077 -0.003,-0.01221 -0.0031,-0.02435 -0.0031,-0.03659 0.354154,-0.174019 0.81524,-0.250352 1.224349,-0.360287 0.07633,-0.05801 0.07325,-0.192338 0.0763,-0.262565 0.0031,-0.235083 -0.02748,-0.711414 0.06107,-0.894595 0.140452,0.04884 0.522115,0.735818 0.622849,0.894595 0.06106,0.01523 0.146516,0.003 0.241148,-0.0061 0.320586,-0.09161 0.647331,-0.186251 0.974023,-0.274803 0.0061,-0.01221 0.01519,-0.02443 0.02741,-0.03054 0.07328,-0.112993 0.222979,-0.732719 0.149675,-0.9128894 -0.18624,-0.021325 -0.36333,0.057997 -0.509896,0.1099614 -0.140446,0.03052 -0.28093,0.06406 -0.421356,0.100714 -0.01527,-0.0092 -0.02749,-0.01523 -0.03665,-0.02441 -0.277819,-0.4060754 -0.549544,-0.8151704 -0.821287,-1.2182317 -0.412162,-0.439598 -0.857934,-0.5343057 -1.083855,0.100781 -0.0855,0.5312277 -0.0794,1.1113357 -0.100781,1.6700537 -0.0031,0.01223 -0.0061,0.02748 -0.0061,0.04271 -0.35416,0.09161 -0.7083997,0.186282 -1.0595054,0.277863 -0.2717063,0.04885 -0.5953233,0.140484 -0.8121083,0.283985 -0.1709643,0.100743 -0.25648,0.253359 -0.2748067,0.470116 0.018317,0.06106 0.021425,0.186264 0.082489,0.244272 0.2595213,0.360268 0.952538,0.549598 1.3921863,0.717512 0.1892961,0.07328 0.3786111,0.15266 0.5709641,0.228972 -0.01527,0.329751 -0.03052,0.659522 -0.04577,0.995377 -0.0061,0.0091 -0.0092,0.02132 -0.0092,0.03659 v 0.02448 c -0.003,0.119067 -0.0092,0.241156 -0.01223,0.363282 h -0.0183 v 0.38776 h 0.0183 c 0.0031,0.03663 0.0092,0.07021 0.01223,0.109894 0.01527,0.204574 0.112977,0.323673 0.29616,0.482422 0.0855,0.0092 0.174011,0.02138 0.262564,0.03665 0.415217,-0.122129 0.622837,-0.461071 0.885416,-0.790821 0.0244,-0.03968 0.05193,-0.07633 0.07943,-0.116015 v -6.6e-5 c 0.07629,-0.10988 0.152595,-0.213678 0.231966,-0.317448 0.0855,-0.112962 0.171019,-0.225939 0.25957,-0.335873 0.02441,-0.02746 0.04884,-0.05189 0.0763,-0.0763 0.363351,0.134346 0.723589,0.271723 1.086914,0.412175 h 0.02142 c 0.149566,0.149609 0.708307,0.228992 0.973956,0.186263 0.07322,-0.0519 0.146504,-0.100742 0.219794,-0.15267 0.152623,-0.354153 0.122078,-0.470171 -0.03971,-0.790756 h 6.7e-5 c -0.219872,-0.369427 -0.219899,-0.36944 -0.540429,-0.854882 -0.08552,-0.192347 -0.128228,-0.35115 -0.164908,-0.512958 0.50379,-0.467143 1.025887,-0.833494 1.288412,-1.489906 0.03974,-0.116044 0.05496,-0.131284 0.0733,-0.241212 C 15.479081,9.700995 15.381404,9.3407416 15.11881,8.8735633 14.901996,8.5499763 14.663847,8.2873396 14.422651,8.0339173 14.273085,7.893519 13.9739,7.5820873 13.812038,7.5210246 c -0.01521,-0.024455 -0.01521,-0.024455 -0.467121,-0.235156 -0.119071,-0.042723 -0.241215,-0.082342 -0.357226,-0.125065 -0.433546,-0.140468 -0.870123,-0.222973 -1.279233,-0.27181 h -0.07025 z m 2.274594,7.0344444 c 3.77e-4,0 7.57e-4,6.6e-5 0.0013,6.6e-5 -3.77e-4,-3e-6 -7.57e-4,0 -0.0013,0 z"
         sodipodi:nodetypes="cccccccccccccccccccccccccccccccccccccccccccccccssccccccccccccccccccccccccccccccccccccccccccccscccccccccccccccccccccccccccccccccccc" />
      <path
         id="lpe_path-effect1356"
         style="fill:#000000;fill-opacity:1;fill-rule:nonzero;stroke:none;stroke-width:0.00710867"
         class="powerclip"
         d="M -5,-5 H 29 V 29 H -5 Z M 11.03978,6.8890006 C 10.539033,6.956177 10.114713,7.0417283 9.6720053,7.2065806 9.555984,7.2493023 9.415528,7.3072936 9.3208986,7.3622443 9.0094743,7.5088243 8.4965233,7.7713893 8.3102856,8.0216823 8.200377,8.0919146 7.818704,8.4644163 7.7973306,8.5438176 7.7057213,8.5926543 7.663,8.6842233 7.595833,8.7789106 7.4676003,8.943829 7.311904,9.11483 7.244728,9.3254606 6.8874906,9.8017416 6.679899,10.632187 6.5944016,11.242841 c -0.012191,0 -0.045794,0.314496 -0.061068,0.332813 v 0.07324 0.641146 0.302278 c 0.1343443,0.787726 0.3175377,1.416649 0.772463,2.115823 0.1556987,0.277823 0.5068,0.702253 0.8151653,0.919009 0.6625474,0.580107 1.5205027,1.044158 2.4242201,1.263998 0.01527,0.01527 0.155693,0.03661 0.170962,0.05189 0.598406,0.106852 0.906786,0.143532 0.970899,0.167968 h 1.010612 c 0.07023,-0.02444 0.07023,-0.02442 0.735807,-0.146549 v -6.6e-5 c 0.980057,-0.268687 1.795226,-0.729648 2.518816,-1.456315 0.341923,-0.378587 0.341966,-0.378587 0.381704,-0.439649 0.37555,-0.461011 0.62895,-0.99837 0.836524,-1.532683 0.155746,-0.519011 0.155736,-0.519018 0.161783,-0.561785 0.05808,-0.280877 0.0581,-0.280865 0.134377,-0.839582 v -0.714452 c -0.01529,-0.116019 -0.02742,-0.23207 -0.03965,-0.348113 -0.06106,-0.439656 -0.146591,-0.83045 -0.241208,-1.2243487 -0.03363,-0.085442 -0.0641,-0.16787 -0.09466,-0.25026 -0.2503,-0.5313007 -0.540402,-0.8121687 -1.083858,-0.5221363 -0.311429,0.290032 -0.31145,0.436606 -0.18932,0.8518233 0.09774,0.3419527 0.192367,0.6839097 0.293098,1.0289057 0.0794,0.07633 0.13738,0.793872 0.143487,0.906836 -0.02139,0.445763 -0.0214,0.445743 -0.06413,0.818228 -0.01529,0.01527 -0.01525,0.01525 -0.143486,0.525131 -0.07016,0.174019 -0.14044,0.348053 -0.207618,0.52513 -0.250366,0.47325 -0.577022,0.839645 -0.980012,1.221288 -0.180135,0.11907 -0.357239,0.241157 -0.537372,0.363281 -0.02751,0.0061 -0.219875,0.106894 -0.693097,0.311459 -0.02439,-0.003 -0.02436,-0.0031 -0.253388,0.0763 -0.476279,0.07634 -0.922089,0.119089 -1.373954,0.122138 -0.433552,-0.03663 -0.802961,-0.10684 -1.205995,-0.201499 -0.01523,-0.01525 -0.100747,-0.03359 -0.638083,-0.241211 C 9.922302,15.269914 9.9223336,15.269914 9.5437483,15.056187 9.0430316,14.680649 8.6644213,14.320405 8.3347003,13.834961 8.25531,13.69451 8.1789976,13.554044 8.0996086,13.416668 7.9622126,13.102169 7.876745,12.809078 7.8095703,12.515953 7.763756,12.106897 7.7637636,12.106812 7.7607413,11.926758 v -6.6e-5 c 2.3e-6,-0.0641 0.00299,-0.125166 0.00606,-0.189256 0.00305,-0.100776 0.012246,-0.20153 0.018357,-0.29616 0.064112,-0.354189 0.079361,-0.369453 0.079361,-0.421355 C 7.9622026,10.748226 8.069075,10.369594 8.2339216,10.119207 8.3254946,9.9452643 8.325593,9.94519 8.5270846,9.6368486 8.7774443,9.3254206 8.978883,9.102577 9.272008,8.8460933 10.484091,8.049214 12.090118,7.807997 13.387697,8.598765 c 0.07023,0.05495 0.143492,0.1098933 0.216799,0.1648413 0.222856,0.2107 0.378536,0.4213747 0.567836,0.7236333 0.09774,0.2259844 0.173965,0.4122457 0.186198,0.7022804 -0.07023,0.473222 -0.427429,0.75106 -0.787695,1.05332 -0.451869,0.314472 -0.451839,0.314441 -0.751041,0.537303 -0.161808,0.204571 0.161801,0.509909 0.305274,0.726694 0.08855,0.140424 0.265664,0.338843 0.290103,0.537302 -0.183188,0 -0.372493,-0.09771 -0.509894,-0.149608 -0.143504,-0.05495 -0.28702,-0.106823 -0.424415,-0.158724 -0.143503,-0.05801 -0.228932,-0.09771 -0.335808,-0.08854 -0.671682,0.876284 -0.705336,0.946502 -0.781639,0.931249 -0.06717,-0.406082 0.04889,-0.82741 0.04889,-1.212108 -0.01527,-0.02138 -0.0306,-0.04273 -0.04889,-0.06107 -0.390815,-0.244248 -0.860992,-0.296187 -1.202932,-0.519077 -0.003,-0.01221 -0.0031,-0.02435 -0.0031,-0.03659 0.354154,-0.174019 0.81524,-0.250352 1.224349,-0.360287 0.07633,-0.05801 0.07325,-0.192338 0.0763,-0.262565 0.0031,-0.235083 -0.02748,-0.711414 0.06107,-0.894595 0.140452,0.04884 0.522115,0.735818 0.622849,0.894595 0.06106,0.01523 0.146516,0.003 0.241148,-0.0061 0.320586,-0.09161 0.647331,-0.186251 0.974023,-0.274803 0.0061,-0.01221 0.01519,-0.02443 0.02741,-0.03054 0.07328,-0.112993 0.222979,-0.732719 0.149675,-0.9128894 -0.18624,-0.021325 -0.36333,0.057997 -0.509896,0.1099614 -0.140446,0.03052 -0.28093,0.06406 -0.421356,0.100714 -0.01527,-0.0092 -0.02749,-0.01523 -0.03665,-0.02441 -0.277819,-0.4060754 -0.549544,-0.8151704 -0.821287,-1.2182317 -0.412162,-0.439598 -0.857934,-0.5343057 -1.083855,0.100781 -0.0855,0.5312277 -0.0794,1.1113357 -0.100781,1.6700537 -0.0031,0.01223 -0.0061,0.02748 -0.0061,0.04271 -0.35416,0.09161 -0.7083997,0.186282 -1.0595054,0.277863 -0.2717063,0.04885 -0.5953233,0.140484 -0.8121083,0.283985 -0.1709643,0.100743 -0.25648,0.253359 -0.2748067,0.470116 0.018317,0.06106 0.021425,0.186264 0.082489,0.244272 0.2595213,0.360268 0.952538,0.549598 1.3921863,0.717512 0.1892961,0.07328 0.3786111,0.15266 0.5709641,0.228972 -0.01527,0.329751 -0.03052,0.659522 -0.04577,0.995377 -0.0061,0.0091 -0.0092,0.02132 -0.0092,0.03659 v 0.02448 c -0.003,0.119067 -0.0092,0.241156 -0.01223,0.363282 h -0.0183 v 0.38776 h 0.0183 c 0.0031,0.03663 0.0092,0.07021 0.01223,0.109894 0.01527,0.204574 0.112977,0.323673 0.29616,0.482422 0.0855,0.0092 0.174011,0.02138 0.262564,0.03665 0.415217,-0.122129 0.622837,-0.461071 0.885416,-0.790821 0.0244,-0.03968 0.05193,-0.07633 0.07943,-0.116015 v -6.6e-5 c 0.07629,-0.10988 0.152595,-0.213678 0.231966,-0.317448 0.0855,-0.112962 0.171019,-0.225939 0.25957,-0.335873 0.02441,-0.02746 0.04884,-0.05189 0.0763,-0.0763 0.363351,0.134346 0.723589,0.271723 1.086914,0.412175 h 0.02142 c 0.149566,0.149609 0.708307,0.228992 0.973956,0.186263 0.07322,-0.0519 0.146504,-0.100742 0.219794,-0.15267 0.152623,-0.354153 0.122078,-0.470171 -0.03971,-0.790756 h 6.7e-5 c -0.219872,-0.369427 -0.219899,-0.36944 -0.540429,-0.854882 -0.08552,-0.192347 -0.128228,-0.35115 -0.164908,-0.512958 0.50379,-0.467143 1.025887,-0.833494 1.288412,-1.489906 0.03974,-0.116044 0.05496,-0.131284 0.0733,-0.241212 C 15.479081,9.700995 15.381404,9.3407416 15.11881,8.8735633 14.901996,8.5499763 14.663847,8.2873396 14.422651,8.0339173 14.273085,7.893519 13.9739,7.5820873 13.812038,7.5210246 c -0.01521,-0.024455 -0.01521,-0.024455 -0.467121,-0.235156 -0.119071,-0.042723 -0.241215,-0.082342 -0.357226,-0.125065 -0.433546,-0.140468 -0.870123,-0.222973 -1.279233,-0.27181 h -0.07025 z m 2.274594,7.0344444 v 6.6e-5 c 5.43e-4,0 9.23e-4,-3e-6 0.0013,0 -5.43e-4,0 -9.23e-4,-6.6e-5 -0.0013,-6.6e-5 z" />
    </clipPath>
  </defs>
  <sodipodi:namedview
     id="namedview840"
     pagecolor="#ffffff"
     bordercolor="#666666"
     borderopacity="1.0"
     inkscape:pageshadow="2"
     inkscape:pageopacity="0.0"
     inkscape:pagecheckerboard="0"
     showgrid="false"
     inkscape:zoom="6.9375"
     inkscape:cx="64"
     inkscape:cy="64"
     inkscape:window-width="1920"
     inkscape:window-height="1138"
     inkscape:window-x="-8"
     inkscape:window-y="-8"
     inkscape:window-maximized="1"
     inkscape:current-layer="svg838" />
  <g
     id="g1196">
    <path
       d="M108 0H20C8.9543 0 0 8.9543 0 20V108C0 119.046 8.9543 128 20 128H108C119.046 128 128 119.046 128 108V20C128 8.9543 119.046 0 108 0Z"
       fill="#041E42"
       id="path834" />
    <g
       inkscape:label="Capa 1"
       id="layer1"
       style="display:inline"
       transform="matrix(0.52493437,0,0,0.52493437,-7.1111103,-7.1111103)" />
    <g
       id="layer2"
       inkscape:label="Capa 2"
       transform="matrix(0.52493437,0,0,0.52493437,-7.1111103,-7.1111103)">
      <g
         style="fill:#000000"
         id="g1332"
         transform="matrix(7.9375,0,0,7.9375,40.216667,40.216667)"
         clip-path="url(#clipPath1352)"
         inkscape:path-effect="#path-effect1356">
        <path
           d="M 0,0 H 24 V 24 H 0 Z"
           fill="none"
           id="path1320"
           inkscape:original-d="M 0,0 H 24 V 24 H 0 Z" />
        <path
           d="M 19.35,10.04 C 18.67,6.59 15.64,4 12,4 9.11,4 6.6,5.64 5.35,8.04 2.34,8.36 0,10.91 0,14 c 0,3.31 2.69,6 6,6 h 13 c 2.76,0 5,-2.24 5,-5 0,-2.64 -2.05,-4.78 -4.65,-4.96 z"
           id="path1322"
           inkscape:original-d="M 19.35,10.04 C 18.67,6.59 15.64,4 12,4 9.11,4 6.6,5.64 5.35,8.04 2.34,8.36 0,10.91 0,14 c 0,3.31 2.69,6 6,6 h 13 c 2.76,0 5,-2.24 5,-5 0,-2.64 -2.05,-4.78 -4.65,-4.96 z"
           style="fill:#ffffff" />
      </g>
      <path
         d="M 40.216667,40.216667 H 230.71667 V 230.71667 H 40.216667 Z"
         fill="none"
         id="path2353"
         style="stroke-width:7.9375" />
    </g>
  </g>
</svg>
